<?xml version="1.0" encoding="utf-8"?>
<!-- Generator: Adobe Illustrator 25.4.1, SVG Export Plug-In . SVG Version: 6.00 Build 0)  -->
<svg version="1.1" id="Layer_1" xmlns="http://www.w3.org/2000/svg" xmlns:xlink="http://www.w3.org/1999/xlink" x="0px" y="0px"
	 viewBox="0 0 175 175" style="enable-background:new 0 0 175 175;" xml:space="preserve">
<style type="text/css">
	.st0{fill:url(#SVGID_1_);}
	.st1{fill:url(#SVGID_00000030448820441762128800000002072853260861051520_);}
	.st2{fill:url(#SVGID_00000134965300060668216880000012167066369253390479_);}
	.st3{fill:url(#SVGID_00000052065881101502667740000004191831484944704191_);}
	.st4{enable-background:new    ;}
</style>
<g id="frame">
	<g>
		
			<radialGradient id="SVGID_1_" cx="87.5" cy="87.5" r="87.5" gradientTransform="matrix(1 0 0 -1 0 175)" gradientUnits="userSpaceOnUse">
			<stop  offset="0" style="stop-color:#808080"/>
			<stop  offset="6.948280e-02" style="stop-color:#8B8B8B"/>
			<stop  offset="0.5099" style="stop-color:#C9C9C9"/>
			<stop  offset="0.8322" style="stop-color:#F0F0F0"/>
			<stop  offset="1" style="stop-color:#FFFFFF"/>
		</radialGradient>
		<path class="st0" d="M163.6,87.5c0,42-34.1,76.1-76.1,76.1s-76.1-34.1-76.1-76.1s34.1-76.1,76.1-76.1S163.6,45.5,163.6,87.5z
			 M87.5,0C39.2,0,0,39.2,0,87.5S39.2,175,87.5,175S175,135.8,175,87.5S135.8,0,87.5,0z"/>
	</g>
	<g id="dial">
		<rect x="41.6" y="157.6" transform="matrix(0.5001 -0.866 0.866 0.5001 -113.3519 119.5109)" width="10.5" height="0.7"/>
		<rect x="122.9" y="16.7" transform="matrix(0.5022 -0.8647 0.8647 0.5022 49.0293 119.3295)" width="10.5" height="0.7"/>
		<rect x="11.8" y="127.8" transform="matrix(0.866 -0.5001 0.5001 0.866 -61.8024 25.6977)" width="10.5" height="0.7"/>
		<polygon points="153.6,49.7 153.2,49.1 162.3,43.9 162.7,44.5 		"/>
		<rect x="0.9" y="87.1" width="10.5" height="0.7"/>
		<rect x="163.6" y="87.1" width="10.5" height="0.7"/>
		<polygon points="21.4,49.7 12.3,44.5 12.7,43.9 21.8,49.1 		"/>
		<rect x="157.6" y="122.9" transform="matrix(0.5 -0.866 0.866 0.5 -32.0528 200.86)" width="0.7" height="10.5"/>
		<rect x="46.5" y="11.8" transform="matrix(0.866 -0.5 0.5 0.866 -2.2361 25.7056)" width="0.7" height="10.5"/>
		<rect x="127.8" y="152.7" transform="matrix(0.866 -0.5 0.5 0.866 -61.8097 85.2366)" width="0.7" height="10.5"/>
		<rect x="87.2" y="0.9" width="0.7" height="10.5"/>
		<rect x="87.2" y="163.6" width="0.7" height="10.5"/>
		<rect x="62.5" y="167.4" transform="matrix(0.2622 -0.965 0.965 0.2622 -113.2332 187.4375)" width="7" height="0.7"/>
		<rect x="105.5" y="6.9" transform="matrix(0.2595 -0.9657 0.9657 0.2595 73.7358 110.6574)" width="7" height="0.7"/>
		<rect x="25.2" y="145.9" transform="matrix(0.7058 -0.7084 0.7084 0.7058 -95.1771 63.3617)" width="7" height="0.7"/>
		<rect x="142.8" y="28.4" transform="matrix(0.7071 -0.7071 0.7071 0.7071 22.5405 111.8628)" width="7" height="0.7"/>
		<rect x="3.7" y="108.7" transform="matrix(0.9657 -0.2595 0.2595 0.9657 -28.052 5.6053)" width="7" height="0.7"/>
		<rect x="164.3" y="65.6" transform="matrix(0.9657 -0.2595 0.2595 0.9657 -11.3647 45.7988)" width="7" height="0.7"/>
		<rect x="6.9" y="62.5" transform="matrix(0.2587 -0.966 0.966 0.2587 -58.3479 55.9068)" width="0.7" height="7"/>
		<rect x="167.4" y="105.5" transform="matrix(0.2589 -0.9659 0.9659 0.2589 19.012 242.8369)" width="0.7" height="7"/>
		<polygon points="31,31.5 26,26.5 26.5,26 31.5,31 		"/>
		<polygon points="148.5,149 143.5,144 144,143.5 149,148.5 		"/>
		<rect x="65.6" y="3.7" transform="matrix(0.966 -0.2587 0.2587 0.966 0.3808 17.3075)" width="0.7" height="7"/>
		<rect x="108.7" y="164.3" transform="matrix(0.966 -0.2587 0.2587 0.966 -39.6928 33.9272)" width="0.7" height="7"/>
		<polygon points="105.2,172.3 104.1,167.5 104.8,167.4 105.8,172.1 		"/>
		<rect x="69.7" y="2.7" transform="matrix(0.9781 -0.208 0.208 0.9781 0.4634 14.6807)" width="0.7" height="4.9"/>
		<rect x="59" y="167.2" transform="matrix(0.3103 -0.9506 0.9506 0.3103 -116.918 174.0309)" width="4.9" height="0.7"/>
		<rect x="111.1" y="7.1" transform="matrix(0.3095 -0.9509 0.9509 0.3095 71.3314 113.0452)" width="4.9" height="0.7"/>
		<rect x="22.5" y="143.5" transform="matrix(0.7438 -0.6684 0.6684 0.7438 -89.7602 53.5469)" width="4.9" height="0.7"/>
		<rect x="147.6" y="30.8" transform="matrix(0.7425 -0.6699 0.6699 0.7425 17.7691 108.5278)" width="4.9" height="0.7"/>
		<rect x="2.7" y="104.6" transform="matrix(0.9785 -0.2061 0.2061 0.9785 -21.5205 3.3123)" width="4.9" height="0.7"/>
		<polygon points="167.5,70.9 167.4,70.2 172.1,69.2 172.3,69.8 		"/>
		<rect x="7.1" y="59" transform="matrix(0.3089 -0.9511 0.9511 0.3089 -53.3539 49.5475)" width="0.7" height="4.9"/>
		<rect x="167.2" y="111.1" transform="matrix(0.3093 -0.951 0.951 0.3093 7.8204 237.7776)" width="0.7" height="4.9"/>
		<rect x="30.8" y="22.5" transform="matrix(0.743 -0.6693 0.6693 0.743 -8.7037 27.2695)" width="0.7" height="4.9"/>
		<rect x="143.5" y="147.6" transform="matrix(0.7434 -0.6689 0.6689 0.7434 -63.4243 134.7227)" width="0.7" height="4.9"/>
		<rect x="100.3" y="168.2" transform="matrix(0.9877 -0.1562 0.1562 0.9877 -25.4219 17.8148)" width="0.7" height="4.9"/>
		<rect x="74" y="1.9" transform="matrix(0.9877 -0.1566 0.1566 0.9877 0.2343 11.6964)" width="0.7" height="4.9"/>
		<polygon points="56.8,168.5 56.1,168.2 57.9,163.7 58.5,163.9 		"/>
		<rect x="115.2" y="8.6" transform="matrix(0.3603 -0.9328 0.9328 0.3603 66.9211 115.4889)" width="4.9" height="0.7"/>
		<rect x="19.6" y="140.1" transform="matrix(0.7771 -0.6294 0.6294 0.7771 -83.4997 45.1969)" width="4.9" height="0.7"/>
		<rect x="150.5" y="34.2" transform="matrix(0.7772 -0.6292 0.6292 0.7772 12.3495 103.9226)" width="4.9" height="0.7"/>
		<rect x="1.9" y="100.3" transform="matrix(0.9877 -0.1563 0.1563 0.9877 -15.6783 1.9169)" width="4.9" height="0.7"/>
		<rect x="168.2" y="74" transform="matrix(0.9877 -0.1563 0.1563 0.9877 -9.5219 27.5868)" width="4.9" height="0.7"/>
		<polygon points="11.1,58.5 6.5,56.8 6.8,56.1 11.3,57.9 		"/>
		<rect x="165.7" y="115.2" transform="matrix(0.3587 -0.9334 0.9334 0.3587 -3.3754 230.4591)" width="0.7" height="4.9"/>
		<polygon points="35.8,24.2 32.7,20.4 33.3,20 36.4,23.8 		"/>
		<rect x="140.1" y="150.5" transform="matrix(0.7772 -0.6293 0.6293 0.7772 -64.9501 122.4919)" width="0.7" height="4.9"/>
		<polygon points="96.2,173.7 95.7,168.8 96.4,168.7 96.9,173.6 		"/>
		<polygon points="78.6,6.3 78.1,1.4 78.8,1.3 79.3,6.2 		"/>
		<polygon points="52.6,166.8 52,166.5 53.9,162 54.6,162.3 		"/>
		<rect x="119.3" y="10.3" transform="matrix(0.4077 -0.9131 0.9131 0.4077 62.4272 117.4826)" width="4.9" height="0.7"/>
		<rect x="17" y="136.6" transform="matrix(0.8086 -0.5884 0.5884 0.8086 -76.8583 37.648)" width="4.9" height="0.7"/>
		<rect x="153.1" y="37.7" transform="matrix(0.8086 -0.5884 0.5884 0.8086 7.3731 98.8289)" width="4.9" height="0.7"/>
		<polygon points="1.4,96.9 1.3,96.2 6.2,95.7 6.3,96.4 		"/>
		<polygon points="168.8,79.3 168.7,78.6 173.6,78.1 173.7,78.8 		"/>
		<polygon points="12.7,54.6 8.2,52.6 8.5,52 13,53.9 		"/>
		<rect x="164" y="119.3" transform="matrix(0.4069 -0.9135 0.9135 0.4069 -13.7217 222.3884)" width="0.7" height="4.9"/>
		<rect x="37.7" y="17" transform="matrix(0.809 -0.5878 0.5878 0.809 -4.1532 26.0879)" width="0.7" height="4.9"/>
		<polygon points="138.1,157.8 135.2,153.8 135.8,153.4 138.7,157.4 		"/>
		
			<rect x="91.6" y="169.1" transform="matrix(0.9986 -5.219239e-02 5.219239e-02 0.9986 -8.8276 5.0325)" width="0.7" height="4.9"/>
		
			<rect x="82.7" y="1" transform="matrix(0.9986 -5.261959e-02 5.261959e-02 0.9986 -6.652682e-02 4.3747)" width="0.7" height="4.9"/>
		<polygon points="48.5,164.8 47.9,164.5 50.1,160.1 50.7,160.5 		"/>
		<polygon points="124.9,14.9 124.3,14.5 126.5,10.2 127.1,10.5 		"/>
		<rect x="14.5" y="133" transform="matrix(0.8391 -0.5439 0.5439 0.8391 -69.7913 30.6626)" width="4.9" height="0.7"/>
		<rect x="155.6" y="41.3" transform="matrix(0.838 -0.5457 0.5457 0.838 2.8624 93.0015)" width="4.9" height="0.7"/>
		<rect x="1" y="91.6" transform="matrix(0.9986 -5.312787e-02 5.312787e-02 0.9986 -4.8804 0.3134)" width="4.9" height="0.7"/>
		
			<rect x="169.1" y="82.7" transform="matrix(0.9986 -5.327193e-02 5.327193e-02 0.9986 -4.1808 9.2569)" width="4.9" height="0.7"/>
		<rect x="12.1" y="46.8" transform="matrix(0.454 -0.891 0.891 0.454 -37.044 38.0094)" width="0.7" height="4.9"/>
		<rect x="162.2" y="123.3" transform="matrix(0.4539 -0.8911 0.8911 0.4539 -23.294 213.4905)" width="0.7" height="4.9"/>
		<rect x="41.3" y="14.5" transform="matrix(0.8386 -0.5448 0.5448 0.8386 -2.5103 25.4413)" width="0.7" height="4.9"/>
		<polygon points="134.4,160.3 131.7,156.2 132.3,155.8 135,159.9 		"/>
		
			<rect x="80.7" y="171.2" transform="matrix(5.312787e-02 -0.9986 0.9986 5.312787e-02 -92.6574 245.4569)" width="4.9" height="0.7"/>
		<rect x="89.5" y="3.1" transform="matrix(5.312787e-02 -0.9986 0.9986 5.312787e-02 83.6193 95.001)" width="4.9" height="0.7"/>
		<polygon points="40.6,160.3 40,159.9 42.7,155.8 43.3,156.2 		"/>
		<rect x="130.9" y="16.6" transform="matrix(0.5451 -0.8384 0.8384 0.5451 46.4899 119.5176)" width="4.9" height="0.7"/>
		<rect x="10.1" y="125.4" transform="matrix(0.8916 -0.4528 0.4528 0.8916 -55.5694 19.3157)" width="4.9" height="0.7"/>
		<rect x="160" y="48.9" transform="matrix(0.89 -0.456 0.456 0.89 -4.6011 79.4932)" width="4.9" height="0.7"/>
		
			<rect x="3.1" y="80.7" transform="matrix(5.221361e-02 -0.9986 0.9986 5.221361e-02 -79.7628 82.1611)" width="0.7" height="4.9"/>
		
			<rect x="171.2" y="89.5" transform="matrix(5.261965e-02 -0.9986 0.9986 5.261965e-02 70.7804 258.4198)" width="0.7" height="4.9"/>
		<rect x="16.6" y="39.2" transform="matrix(0.5448 -0.8386 0.8386 0.5448 -27.1981 33.1448)" width="0.7" height="4.9"/>
		<rect x="157.7" y="130.9" transform="matrix(0.5446 -0.8387 0.8387 0.5446 -39.8581 193.3068)" width="0.7" height="4.9"/>
		<polygon points="50.1,14.9 47.9,10.5 48.5,10.2 50.7,14.5 		"/>
		<polygon points="126.5,164.8 124.3,160.5 124.9,160.1 127.1,164.5 		"/>
		<polygon points="78.8,173.7 78.1,173.6 78.6,168.7 79.3,168.8 		"/>
		<polygon points="96.4,6.3 95.7,6.2 96.2,1.3 96.9,1.4 		"/>
		<rect x="35.6" y="155.2" transform="matrix(0.5864 -0.81 0.81 0.5864 -110.292 95.1259)" width="4.9" height="0.7"/>
		<rect x="134.5" y="19.1" transform="matrix(0.5884 -0.8086 0.8086 0.5884 40.6723 118.7642)" width="4.9" height="0.7"/>
		<polygon points="8.5,123 8.2,122.4 12.7,120.4 13,121.1 		"/>
		<polygon points="162.3,54.6 162,53.9 166.5,52 166.8,52.6 		"/>
		<polygon points="6.2,79.3 1.3,78.8 1.4,78.1 6.3,78.6 		"/>
		<polygon points="173.6,96.9 168.7,96.4 168.8,95.7 173.7,96.2 		"/>
		<polygon points="21.2,39.8 17.2,36.9 17.6,36.3 21.6,39.2 		"/>
		<rect x="155.2" y="134.5" transform="matrix(0.5881 -0.8088 0.8088 0.5881 -46.7244 182.2406)" width="0.7" height="4.9"/>
		<rect x="52.9" y="8.2" transform="matrix(0.9136 -0.4066 0.4066 0.9136 0.2716 22.578)" width="0.7" height="4.9"/>
		<polygon points="122.4,166.8 120.4,162.3 121.1,162 123,166.5 		"/>
		<rect x="71.9" y="170.3" transform="matrix(0.156 -0.9878 0.9878 0.156 -105.7407 217.4533)" width="4.9" height="0.7"/>
		<rect x="98.2" y="4" transform="matrix(0.1563 -0.9877 0.9877 0.1563 80.5698 103.1081)" width="4.9" height="0.7"/>
		<polygon points="33.3,155 32.7,154.6 35.8,150.8 36.3,151.2 		"/>
		<polygon points="139.2,24.2 138.6,23.8 141.7,20 142.3,20.4 		"/>
		<polygon points="6.8,118.9 6.5,118.2 11.1,116.5 11.3,117.1 		"/>
		<rect x="163.6" y="57" transform="matrix(0.9338 -0.3578 0.3578 0.9338 -9.5327 63.2117)" width="4.9" height="0.7"/>
		<rect x="4" y="71.9" transform="matrix(0.1563 -0.9877 0.9877 0.1563 -69.7511 67.0778)" width="0.7" height="4.9"/>
		<rect x="170.2" y="98.2" transform="matrix(0.1562 -0.9877 0.9877 0.1562 44.5507 253.4138)" width="0.7" height="4.9"/>
		<polygon points="23.8,36.3 20,33.3 20.4,32.7 24.2,35.8 		"/>
		<rect x="152.6" y="138" transform="matrix(0.6295 -0.777 0.777 0.6295 -52.4474 170.8463)" width="0.7" height="4.9"/>
		<polygon points="57.9,11.3 56.1,6.8 56.8,6.5 58.5,11.1 		"/>
		<polygon points="118.2,168.5 116.5,163.9 117.1,163.7 118.9,168.2 		"/>
		<rect x="67.6" y="169.4" transform="matrix(0.2061 -0.9785 0.9785 0.2061 -110.5426 203.3219)" width="4.9" height="0.7"/>
		<polygon points="104.8,7.6 104.1,7.5 105.2,2.7 105.8,2.9 		"/>
		<rect x="28.7" y="149.7" transform="matrix(0.6699 -0.7425 0.7425 0.6699 -101.1395 72.6935)" width="4.9" height="0.7"/>
		<rect x="141.4" y="24.6" transform="matrix(0.6685 -0.7437 0.7437 0.6685 29.1304 115.2406)" width="4.9" height="0.7"/>
		<rect x="5" y="113.2" transform="matrix(0.9519 -0.3065 0.3065 0.9519 -34.4424 7.7557)" width="4.9" height="0.7"/>
		<polygon points="165.3,62.6 165.1,61.9 169.8,60.4 170,61.1 		"/>
		<polygon points="7.5,70.9 2.7,69.8 2.9,69.2 7.6,70.2 		"/>
		<rect x="169.4" y="102.5" transform="matrix(0.2081 -0.9781 0.9781 0.2081 31.7826 249.1936)" width="0.7" height="4.9"/>
		<rect x="24.6" y="28.7" transform="matrix(0.6695 -0.7428 0.7428 0.6695 -14.917 28.8158)" width="0.7" height="4.9"/>
		<rect x="149.7" y="141.4" transform="matrix(0.6693 -0.743 0.743 0.6693 -57.2464 159.078)" width="0.7" height="4.9"/>
		<rect x="61.1" y="5" transform="matrix(0.951 -0.3093 0.3093 0.951 0.7051 19.374)" width="0.7" height="4.9"/>
		<rect x="113.2" y="165.1" transform="matrix(0.9511 -0.3089 0.3089 0.9511 -46.1998 43.2691)" width="0.7" height="4.9"/>
	</g>
</g>
<g id="needle">
	
		<linearGradient id="SVGID_00000161597369412215205530000011120729048205953678_" gradientUnits="userSpaceOnUse" x1="85.6137" y1="92.823" x2="98.4717" y2="85.5698" gradientTransform="matrix(1 0 0 -1 0 175)">
		<stop  offset="0" style="stop-color:#0071BC"/>
		<stop  offset="1" style="stop-color:#2E3192"/>
	</linearGradient>
	<polygon style="fill:url(#SVGID_00000161597369412215205530000011120729048205953678_);" points="87.5,71.1 94.3,85.8 102.6,103.9 
		87.5,91.9 	"/>
	
		<linearGradient id="SVGID_00000173136387679595783680000006297922056224257962_" gradientUnits="userSpaceOnUse" x1="79.8152" y1="87.576" x2="84.3104" y2="85.0402" gradientTransform="matrix(1 0 0 -1 0 175)">
		<stop  offset="0" style="stop-color:#0071BC"/>
		<stop  offset="1" style="stop-color:#2E3192"/>
	</linearGradient>
	<polygon style="fill:url(#SVGID_00000173136387679595783680000006297922056224257962_);" points="87.5,91.9 72.4,103.9 80.7,85.8 
		87.5,71.1 	"/>
	
		<linearGradient id="SVGID_00000165218414286610940320000013779688914747174574_" gradientUnits="userSpaceOnUse" x1="87.5" y1="84.9843" x2="87.5" y2="67.0008" gradientTransform="matrix(1 0 0 -1 0 175)">
		<stop  offset="0.1144" style="stop-color:#2E3192"/>
		<stop  offset="0.1656" style="stop-color:#283997"/>
		<stop  offset="0.3509" style="stop-color:#1652A7"/>
		<stop  offset="0.5455" style="stop-color:#0A63B3"/>
		<stop  offset="0.7539" style="stop-color:#026EBA"/>
		<stop  offset="1" style="stop-color:#0071BC"/>
	</linearGradient>
	<polygon style="fill:url(#SVGID_00000165218414286610940320000013779688914747174574_);" points="72.4,103.9 87.5,94.4 
		102.6,103.9 87.5,91.9 	"/>
</g>
<g id="direction">
	<g class="st4">
		<path d="M83.5,22.9v-8.6h1.2l4.5,6.7v-6.7h1.1v8.6h-1.2l-4.5-6.8v6.8H83.5z"/>
	</g>
	<g class="st4">
		<path d="M84.1,155.3l1.1-0.1c0.1,0.4,0.2,0.8,0.4,1.1s0.5,0.5,0.9,0.7s0.8,0.3,1.3,0.3c0.4,0,0.8-0.1,1.1-0.2s0.6-0.3,0.7-0.5
			s0.2-0.5,0.2-0.7c0-0.3-0.1-0.5-0.2-0.7s-0.4-0.4-0.8-0.5c-0.2-0.1-0.7-0.2-1.5-0.4s-1.3-0.4-1.7-0.5c-0.4-0.2-0.7-0.5-0.9-0.8
			s-0.3-0.7-0.3-1.1c0-0.4,0.1-0.8,0.4-1.2s0.6-0.7,1.1-0.9s1-0.3,1.6-0.3c0.6,0,1.2,0.1,1.7,0.3s0.9,0.5,1.1,0.9s0.4,0.8,0.4,1.4
			l-1.1,0.1c-0.1-0.5-0.3-1-0.6-1.2s-0.8-0.4-1.5-0.4c-0.7,0-1.2,0.1-1.5,0.4s-0.5,0.6-0.5,0.9c0,0.3,0.1,0.6,0.3,0.8
			c0.2,0.2,0.8,0.4,1.7,0.6s1.6,0.4,1.9,0.5c0.5,0.2,0.9,0.5,1.1,0.9s0.4,0.8,0.4,1.2c0,0.5-0.1,0.9-0.4,1.3s-0.6,0.7-1.1,0.9
			s-1,0.3-1.7,0.3c-0.8,0-1.4-0.1-2-0.3s-0.9-0.6-1.2-1S84.1,155.9,84.1,155.3z"/>
	</g>
	<g class="st4">
		<path d="M154.3,91.4v-8.6h6.2v1h-5.1v2.6h4.8v1h-4.8v2.9h5.3v1H154.3z"/>
	</g>
	<g class="st4">
		<path d="M15.4,92.4l-2.3-8.6h1.2l1.3,5.6c0.1,0.6,0.3,1.2,0.4,1.8c0.2-0.9,0.3-1.4,0.4-1.6l1.6-5.8h1.4l1.2,4.3
			c0.3,1.1,0.5,2.1,0.7,3c0.1-0.5,0.3-1.2,0.4-1.9l1.3-5.5h1.1l-2.4,8.6h-1.1l-1.8-6.5c-0.2-0.5-0.2-0.9-0.3-1
			c-0.1,0.4-0.2,0.7-0.3,1l-1.8,6.5H15.4z"/>
	</g>
</g>
<g id="direction_x5F_small">
	<g class="st4">
		<path d="M126.3,43.3v-5.7h0.8l3,4.5v-4.5h0.7v5.7h-0.8l-3-4.5v4.5H126.3z"/>
		<path d="M132.1,43.3v-5.7h4.1v0.7h-3.4V40h3.2v0.7h-3.2v1.9h3.5v0.7H132.1z"/>
	</g>
	<g class="st4">
		<path d="M127.5,138.6l0.7-0.1c0,0.3,0.1,0.5,0.2,0.7c0.1,0.2,0.3,0.3,0.6,0.4c0.3,0.1,0.6,0.2,0.9,0.2c0.3,0,0.5,0,0.8-0.1
			c0.2-0.1,0.4-0.2,0.5-0.4c0.1-0.1,0.2-0.3,0.2-0.5c0-0.2-0.1-0.3-0.2-0.5c-0.1-0.1-0.3-0.2-0.5-0.3c-0.2-0.1-0.5-0.2-1-0.3
			c-0.5-0.1-0.9-0.2-1.1-0.4c-0.3-0.1-0.5-0.3-0.6-0.5c-0.1-0.2-0.2-0.5-0.2-0.7c0-0.3,0.1-0.6,0.2-0.8s0.4-0.4,0.7-0.6
			c0.3-0.1,0.7-0.2,1.1-0.2c0.4,0,0.8,0.1,1.1,0.2s0.6,0.3,0.7,0.6c0.2,0.3,0.3,0.6,0.3,0.9l-0.7,0.1c0-0.4-0.2-0.6-0.4-0.8
			c-0.2-0.2-0.6-0.3-1-0.3c-0.5,0-0.8,0.1-1,0.3c-0.2,0.2-0.3,0.4-0.3,0.6c0,0.2,0.1,0.4,0.2,0.5c0.1,0.1,0.5,0.3,1.1,0.4
			c0.6,0.1,1,0.3,1.3,0.4c0.3,0.2,0.6,0.3,0.7,0.6c0.2,0.2,0.2,0.5,0.2,0.8c0,0.3-0.1,0.6-0.3,0.9c-0.2,0.3-0.4,0.5-0.8,0.6
			c-0.3,0.1-0.7,0.2-1.1,0.2c-0.5,0-1-0.1-1.3-0.2c-0.4-0.2-0.6-0.4-0.8-0.7S127.5,139,127.5,138.6z"/>
		<path d="M133.1,140.5v-5.7h4.1v0.7h-3.4v1.8h3.2v0.7h-3.2v1.9h3.5v0.7H133.1z"/>
	</g>
	<g class="st4">
		<path d="M32.6,43.3v-5.7h0.8l3,4.5v-4.5h0.7v5.7h-0.8l-3-4.5v4.5H32.6z"/>
		<path d="M39.4,43.3l-1.5-5.7h0.8l0.9,3.8c0.1,0.4,0.2,0.8,0.2,1.2c0.1-0.6,0.2-1,0.3-1.1l1.1-3.9H42l0.8,2.9
			c0.2,0.7,0.4,1.4,0.4,2c0.1-0.4,0.2-0.8,0.3-1.2l0.9-3.7h0.8l-1.6,5.7h-0.7l-1.2-4.4c-0.1-0.4-0.2-0.6-0.2-0.7
			c-0.1,0.3-0.1,0.5-0.2,0.7l-1.2,4.4H39.4z"/>
	</g>
	<g class="st4">
		<path d="M33.8,138.6l0.7-0.1c0,0.3,0.1,0.5,0.2,0.7s0.3,0.3,0.6,0.4s0.6,0.2,0.9,0.2c0.3,0,0.5,0,0.8-0.1s0.4-0.2,0.5-0.4
			s0.2-0.3,0.2-0.5c0-0.2-0.1-0.3-0.2-0.5s-0.3-0.2-0.5-0.3c-0.2-0.1-0.5-0.2-1-0.3s-0.9-0.2-1.1-0.4c-0.3-0.1-0.5-0.3-0.6-0.5
			s-0.2-0.5-0.2-0.7c0-0.3,0.1-0.6,0.2-0.8s0.4-0.4,0.7-0.6s0.7-0.2,1.1-0.2c0.4,0,0.8,0.1,1.1,0.2s0.6,0.3,0.7,0.6s0.3,0.6,0.3,0.9
			l-0.7,0.1c0-0.4-0.2-0.6-0.4-0.8s-0.6-0.3-1-0.3c-0.5,0-0.8,0.1-1,0.3s-0.3,0.4-0.3,0.6c0,0.2,0.1,0.4,0.2,0.5
			c0.1,0.1,0.5,0.3,1.1,0.4s1,0.3,1.3,0.4c0.3,0.2,0.6,0.3,0.7,0.6s0.2,0.5,0.2,0.8c0,0.3-0.1,0.6-0.3,0.9s-0.4,0.5-0.8,0.6
			s-0.7,0.2-1.1,0.2c-0.5,0-1-0.1-1.3-0.2s-0.6-0.4-0.8-0.7S33.8,139,33.8,138.6z"/>
		<path d="M40.4,140.5l-1.5-5.7h0.8l0.9,3.8c0.1,0.4,0.2,0.8,0.2,1.2c0.1-0.6,0.2-1,0.3-1.1l1.1-3.9H43l0.8,2.9
			c0.2,0.7,0.4,1.4,0.4,2c0.1-0.4,0.2-0.8,0.3-1.2l0.9-3.7h0.8l-1.6,5.7h-0.7l-1.2-4.4c-0.1-0.4-0.2-0.6-0.2-0.7
			c-0.1,0.3-0.1,0.5-0.2,0.7l-1.2,4.4H40.4z"/>
	</g>
</g>
</svg>
