<?xml version="1.0" encoding="utf-8"?>
<!-- Generator: Adobe Illustrator 25.4.1, SVG Export Plug-In . SVG Version: 6.00 Build 0)  -->
<svg version="1.1" id="Layer_1" xmlns="http://www.w3.org/2000/svg" xmlns:xlink="http://www.w3.org/1999/xlink" x="0px" y="0px"
	 viewBox="0 0 63 57.4" style="enable-background:new 0 0 63 57.4;" xml:space="preserve">
<style type="text/css">
	.st0{fill:none;stroke:#359EED;stroke-width:2;stroke-linecap:round;stroke-miterlimit:10;}
	.st1{fill:#F2F2F2;}
	.st2{fill:none;stroke:#FFFF00;stroke-width:2;stroke-linecap:round;stroke-miterlimit:10;}
	.st3{fill:none;stroke:#FCEE21;stroke-width:2;stroke-linecap:round;stroke-miterlimit:10;}
</style>
<g id="_x31_3n">
	<g>
		<circle class="st0" cx="-58" cy="-4.6" r="6.3"/>
		<line class="st0" x1="-58" y1="-15.1" x2="-58" y2="-10.9"/>
		<line class="st0" x1="-68.1" y1="-10.5" x2="-64.3" y2="-8.2"/>
		<line class="st0" x1="-68.1" y1="1.2" x2="-64.3" y2="-1"/>
		<line class="st0" x1="-58" y1="8" x2="-58" y2="3.8"/>
		<line class="st0" x1="-48" y1="1.2" x2="-51.7" y2="-1"/>
		<line class="st0" x1="-48" y1="-10.5" x2="-51.7" y2="-8.2"/>
	</g>
	<path class="st1" d="M-32.8-31.9h-6.4c-1.1-11.7-10.9-21-22.9-21c-12.1,0-22.1,9.3-22.9,21.1c-7.2,1.1-12.8,7.1-12.8,14.6
		c0,8.1,6.6,14.7,14.7,14.7c1.2,0,2.1-0.9,2.1-2.1c0-1.2-0.9-2.1-2.1-2.1c-5.9,0-10.5-4.6-10.5-10.5s4.6-10.5,10.5-10.5
		s10.5,4.6,10.5,10.5c0,1.2,0.9,2.1,2.1,2.1c1.2,0,2.1-0.9,2.1-2.1c0-7.4-5.4-13.5-12.4-14.6c0.9-9.4,9-16.9,18.8-16.9
		c10.4,0,18.9,8.6,18.9,18.9c0,1.2,0.9,2.1,2.1,2.1h8.4c5.9,0,10.5,4.6,10.5,10.5S-27-6.7-32.8-6.7c-1.2,0-2.1,0.9-2.1,2.1
		c0,1.2,0.9,2.1,2.1,2.1c8.1,0,14.7-6.6,14.7-14.7S-24.7-31.9-32.8-31.9z"/>
</g>
<g id="_x30_1d_00000106149809279002883500000015049969843735731903_">
	<line class="st2" x1="31.5" y1="2.1" x2="31.5" y2="7.7"/>
	<line class="st2" x1="12.7" y1="9.9" x2="16.7" y2="13.9"/>
	<line class="st2" x1="4.9" y1="28.7" x2="10.5" y2="28.7"/>
	<line class="st2" x1="12.7" y1="47.5" x2="16.7" y2="43.5"/>
	<line class="st2" x1="31.5" y1="55.3" x2="31.5" y2="49.7"/>
	<line class="st2" x1="50.3" y1="47.5" x2="46.3" y2="43.5"/>
	<line class="st2" x1="58.1" y1="28.7" x2="52.5" y2="28.7"/>
	<line class="st2" x1="50.3" y1="9.9" x2="46.3" y2="13.9"/>
	<circle class="st3" cx="31.5" cy="28.7" r="12.6"/>
</g>
</svg>
