<?xml version="1.0" encoding="utf-8"?>
<!-- Generator: Adobe Illustrator 25.4.1, SVG Export Plug-In . SVG Version: 6.00 Build 0)  -->
<svg version="1.1" id="Layer_1" xmlns="http://www.w3.org/2000/svg" xmlns:xlink="http://www.w3.org/1999/xlink" x="0px" y="0px"
	 viewBox="0 0 57.2 52.1" style="enable-background:new 0 0 57.2 52.1;" xml:space="preserve">
<style type="text/css">
	.st0{fill:none;stroke:#359EED;stroke-width:2;stroke-linecap:round;stroke-miterlimit:10;}
	.st1{fill:#F2F2F2;}
	.st2{fill:none;stroke:#333333;stroke-width:2;stroke-linecap:round;stroke-miterlimit:10;}
</style>
<g id="_x31_3n">
	<g>
		<circle class="st0" cx="-60.9" cy="-7.3" r="6.3"/>
		<line class="st0" x1="-60.9" y1="-17.8" x2="-60.9" y2="-13.6"/>
		<line class="st0" x1="-71" y1="-13.1" x2="-67.2" y2="-10.9"/>
		<line class="st0" x1="-71" y1="-1.4" x2="-67.2" y2="-3.7"/>
		<line class="st0" x1="-60.9" y1="5.3" x2="-60.9" y2="1.1"/>
		<line class="st0" x1="-50.9" y1="-1.4" x2="-54.6" y2="-3.7"/>
		<line class="st0" x1="-50.9" y1="-13.1" x2="-54.6" y2="-10.9"/>
	</g>
	<path class="st1" d="M-35.7-34.6h-6.4c-1.1-11.7-10.9-21-22.9-21c-12.1,0-22.1,9.3-22.9,21.1c-7.2,1.1-12.8,7.1-12.8,14.6
		c0,8.1,6.6,14.7,14.7,14.7c1.2,0,2.1-0.9,2.1-2.1c0-1.2-0.9-2.1-2.1-2.1c-5.9,0-10.5-4.6-10.5-10.5s4.6-10.5,10.5-10.5
		s10.5,4.6,10.5,10.5c0,1.2,0.9,2.1,2.1,2.1c1.2,0,2.1-0.9,2.1-2.1c0-7.4-5.4-13.5-12.4-14.6c0.9-9.4,9-16.9,18.8-16.9
		c10.4,0,18.9,8.6,18.9,18.9c0,1.2,0.9,2.1,2.1,2.1h8.4c5.9,0,10.5,4.6,10.5,10.5S-29.9-9.4-35.7-9.4c-1.2,0-2.1,0.9-2.1,2.1
		c0,1.2,0.9,2.1,2.1,2.1c8.1,0,14.7-6.6,14.7-14.7S-27.6-34.6-35.7-34.6z"/>
</g>
<path id="_x30_1n" class="st2" d="M45.7,29.4c-9.3,0-16.8-7.5-16.8-16.8c0-2.7,0.6-5.1,1.7-7.4C20.2,5.4,12,13.8,12,24.1
	C12,34.6,20.4,43,30.9,43c8.7,0,16-5.9,18.1-14C48.1,29.4,46.9,29.4,45.7,29.4z"/>
</svg>
