<?xml version="1.0" encoding="utf-8"?>
<!-- Generator: Adobe Illustrator 25.4.1, SVG Export Plug-In . SVG Version: 6.00 Build 0)  -->
<svg version="1.1" id="Layer_1" xmlns="http://www.w3.org/2000/svg" xmlns:xlink="http://www.w3.org/1999/xlink" x="0px" y="0px"
	 viewBox="0 0 88.7 70" style="enable-background:new 0 0 88.7 70;" xml:space="preserve">
<style type="text/css">
	.st0{fill:none;stroke:#359EED;stroke-width:2;stroke-linecap:round;stroke-miterlimit:10;}
	.st1{fill:#F2F2F2;}
	.st2{fill:none;stroke:#FCEE21;stroke-width:2;stroke-linecap:round;stroke-miterlimit:10;}
	.st3{fill:none;stroke:#FFFF00;stroke-width:2;stroke-linecap:round;stroke-miterlimit:10;}
</style>
<g id="_x31_3n">
	<g>
		<circle class="st0" cx="-47.1" cy="3.6" r="6.3"/>
		<line class="st0" x1="-47.1" y1="-6.9" x2="-47.1" y2="-2.7"/>
		<line class="st0" x1="-57.1" y1="-2.2" x2="-53.4" y2="0"/>
		<line class="st0" x1="-57.1" y1="9.4" x2="-53.4" y2="7.2"/>
		<line class="st0" x1="-47.1" y1="16.2" x2="-47.1" y2="12"/>
		<line class="st0" x1="-37" y1="9.4" x2="-40.8" y2="7.2"/>
		<line class="st0" x1="-37" y1="-2.2" x2="-40.8" y2="0"/>
	</g>
	<path class="st1" d="M-21.9-23.7h-6.4c-1.1-11.7-10.9-21-22.9-21c-12.1,0-22.1,9.3-22.9,21.1C-81.4-22.5-87-16.5-87-9
		c0,8.1,6.6,14.7,14.7,14.7c1.2,0,2.1-0.9,2.1-2.1c0-1.2-0.9-2.1-2.1-2.1c-5.9,0-10.5-4.6-10.5-10.5s4.6-10.5,10.5-10.5
		S-61.8-14.9-61.8-9c0,1.2,0.9,2.1,2.1,2.1c1.2,0,2.1-0.9,2.1-2.1c0-7.4-5.4-13.5-12.4-14.6c0.9-9.4,9-16.9,18.8-16.9
		c10.4,0,18.9,8.6,18.9,18.9c0,1.2,0.9,2.1,2.1,2.1h8.4c5.9,0,10.5,4.6,10.5,10.5S-16,1.5-21.9,1.5c-1.2,0-2.1,0.9-2.1,2.1
		c0,1.2,0.9,2.1,2.1,2.1C-13.8,5.7-7.2-0.9-7.2-9S-13.8-23.7-21.9-23.7z"/>
</g>
<g id="_x30_2d">
	<path class="st2" d="M45,21.5c3.2-3.6,7.7-5.9,12.8-5.9c9.3,0,16.8,7.5,16.8,16.8c0,3.6-1.1,6.9-3,9.6"/>
	<line class="st3" x1="57.8" y1="3" x2="57.8" y2="7.2"/>
	<line class="st3" x1="87.2" y1="32.4" x2="83" y2="32.4"/>
	<line class="st3" x1="78.6" y1="11.6" x2="75.6" y2="14.6"/>
	<path class="st1" d="M15.8,68.1h50.4c8.1,0,14.7-6.6,14.7-14.7s-6.6-14.7-14.7-14.7h-6.4c-1.1-11.7-10.9-21-22.9-21
		c-12.2,0-22.1,9.3-22.9,21.1c-7.2,1-12.8,7-12.8,14.5C1.1,61.5,7.7,68.1,15.8,68.1z M15.8,42.9c5.8,0,10.5,4.6,10.5,10.5
		c0,1.2,0.9,2.1,2.1,2.1s2.1-0.9,2.1-2.1c0-7.4-5.4-13.5-12.4-14.5c0.9-9.5,9-17,18.8-17c10.3,0,18.9,8.5,18.9,18.9
		c0,1.2,0.9,2.1,2.1,2.1h8.4c5.8,0,10.5,4.6,10.5,10.5S72,63.9,66.2,63.9H15.8c-5.8,0-10.5-4.6-10.5-10.5S9.9,42.9,15.8,42.9z"/>
</g>
</svg>
