<?xml version="1.0" encoding="utf-8"?>
<!-- Generator: Adobe Illustrator 25.4.1, SVG Export Plug-In . SVG Version: 6.00 Build 0)  -->
<svg version="1.1" id="Layer_1" xmlns="http://www.w3.org/2000/svg" xmlns:xlink="http://www.w3.org/1999/xlink" x="0px" y="0px"
	 viewBox="0 0 84.5 62" style="enable-background:new 0 0 84.5 62;" xml:space="preserve">
<style type="text/css">
	.st0{fill:none;stroke:#359EED;stroke-width:2;stroke-linecap:round;stroke-miterlimit:10;}
	.st1{fill:#F2F2F2;}
	.st2{fill:none;stroke:#333333;stroke-width:2;stroke-linecap:round;stroke-miterlimit:10;}
	.st3{fill:#CCCCCC;}
</style>
<g id="_x31_3n">
	<g>
		<circle class="st0" cx="-49" cy="-1" r="6.3"/>
		<line class="st0" x1="-49" y1="-11.5" x2="-49" y2="-7.3"/>
		<line class="st0" x1="-59" y1="-6.9" x2="-55.3" y2="-4.6"/>
		<line class="st0" x1="-59" y1="4.8" x2="-55.3" y2="2.6"/>
		<line class="st0" x1="-49" y1="11.6" x2="-49" y2="7.4"/>
		<line class="st0" x1="-38.9" y1="4.8" x2="-42.7" y2="2.6"/>
		<line class="st0" x1="-38.9" y1="-6.9" x2="-42.7" y2="-4.6"/>
	</g>
	<path class="st1" d="M-23.8-28.3h-6.4c-1.1-11.7-10.9-21-22.9-21c-12.1,0-22.1,9.3-22.9,21.1c-7.2,1.1-12.8,7.1-12.8,14.6
		c0,8.1,6.6,14.7,14.7,14.7c1.2,0,2.1-0.9,2.1-2.1c0-1.2-0.9-2.1-2.1-2.1c-5.9,0-10.5-4.6-10.5-10.5s4.6-10.5,10.5-10.5
		s10.5,4.6,10.5,10.5c0,1.2,0.9,2.1,2.1,2.1c1.2,0,2.1-0.9,2.1-2.1c0-7.4-5.4-13.5-12.4-14.6c0.9-9.4,9-16.9,18.8-16.9
		c10.4,0,18.9,8.6,18.9,18.9c0,1.2,0.9,2.1,2.1,2.1h8.4c5.9,0,10.5,4.6,10.5,10.5S-17.9-3.1-23.8-3.1c-1.2,0-2.1,0.9-2.1,2.1
		c0,1.2,0.9,2.1,2.1,2.1c8.1,0,14.7-6.6,14.7-14.7S-15.7-28.3-23.8-28.3z"/>
</g>
<g id="_x30_2n">
	<path class="st2" d="M73,32.9c4.5-3,7.4-8.1,7.4-14c0-0.1,0-0.3,0-0.6C79,18.7,77.7,19,76.2,19C67,19,59.7,11.8,59.4,2.8
		C54.1,4.1,49.8,7.9,47.8,13"/>
	<path class="st3" d="M17.1,59.2h50.4c8.1,0,14.7-6.6,14.7-14.7s-6.6-14.7-14.7-14.7H61c-1.1-11.7-10.9-21-22.9-21
		c-12.1,0-22.1,9.3-22.9,21.1C7.9,31,2.4,37,2.4,44.5C2.4,52.6,9,59.2,17.1,59.2z M17.1,34c5.9,0,10.5,4.6,10.5,10.5
		c0,1.2,0.9,2.1,2.1,2.1s2.1-0.9,2.1-2.1c0-7.4-5.4-13.5-12.4-14.5c0.9-9.5,9-17,18.8-17C48.4,13,57,21.5,57,31.9
		c0,1.2,0.9,2.1,2.1,2.1h8.4C73.3,34,78,38.6,78,44.5S73.3,55,67.5,55H17.1c-5.9,0-10.5-4.6-10.5-10.5C6.6,38.6,11.2,34,17.1,34z"/>
</g>
</svg>
