<?xml version="1.0" encoding="utf-8"?>
<!-- Generator: Adobe Illustrator 25.4.1, SVG Export Plug-In . SVG Version: 6.00 Build 0)  -->
<svg version="1.1" id="Layer_1" xmlns="http://www.w3.org/2000/svg" xmlns:xlink="http://www.w3.org/1999/xlink" x="0px" y="0px"
	 viewBox="0 0 83.2 55.4" style="enable-background:new 0 0 83.2 55.4;" xml:space="preserve">
<style type="text/css">
	.st0{fill:none;stroke:#359EED;stroke-width:2;stroke-linecap:round;stroke-miterlimit:10;}
	.st1{fill:#F2F2F2;}
</style>
<g id="_x31_3n">
	<g>
		<circle class="st0" cx="-49.5" cy="-4.7" r="6.3"/>
		<line class="st0" x1="-49.5" y1="-15.2" x2="-49.5" y2="-11"/>
		<line class="st0" x1="-59.6" y1="-10.6" x2="-55.8" y2="-8.3"/>
		<line class="st0" x1="-59.6" y1="1.1" x2="-55.8" y2="-1.1"/>
		<line class="st0" x1="-49.5" y1="7.9" x2="-49.5" y2="3.7"/>
		<line class="st0" x1="-39.5" y1="1.1" x2="-43.2" y2="-1.1"/>
		<line class="st0" x1="-39.5" y1="-10.6" x2="-43.2" y2="-8.3"/>
	</g>
	<path class="st1" d="M-24.3-32h-6.4c-1.1-11.7-10.9-21-22.9-21c-12.1,0-22.1,9.3-22.9,21.1c-7.2,1.1-12.8,7.1-12.8,14.6
		c0,8.1,6.6,14.7,14.7,14.7c1.2,0,2.1-0.9,2.1-2.1c0-1.2-0.9-2.1-2.1-2.1c-5.9,0-10.5-4.6-10.5-10.5s4.6-10.5,10.5-10.5
		s10.5,4.6,10.5,10.5c0,1.2,0.9,2.1,2.1,2.1c1.2,0,2.1-0.9,2.1-2.1c0-7.4-5.4-13.5-12.4-14.6c0.9-9.4,9-16.9,18.8-16.9
		c10.4,0,18.9,8.6,18.9,18.9c0,1.2,0.9,2.1,2.1,2.1h8.4c5.9,0,10.5,4.6,10.5,10.5S-18.5-6.8-24.3-6.8c-1.2,0-2.1,0.9-2.1,2.1
		c0,1.2,0.9,2.1,2.1,2.1c8.1,0,14.7-6.6,14.7-14.7S-16.2-32-24.3-32z"/>
</g>
<path id="_x30_3n" class="st1" d="M66.9,23.7h-6.4c-1.1-11.7-10.9-21-22.9-21c-12.1,0-22.1,9.3-22.9,21.2c-7.2,1-12.8,7-12.8,14.5
	c0,8.1,6.6,14.7,14.7,14.7h50.4c8.1,0,14.7-6.6,14.7-14.7S75,23.7,66.9,23.7z M66.9,48.9H16.5C10.6,48.9,6,44.3,6,38.4
	s4.6-10.5,10.5-10.5S27,32.6,27,38.4c0,1.2,0.9,2.1,2.1,2.1c1.2,0,2.1-0.9,2.1-2.1c0-7.3-5.4-13.5-12.4-14.5c0.9-9.5,9-17,18.8-17
	c10.4,0,18.9,8.5,18.9,18.9c0,1.2,0.9,2.1,2.1,2.1h8.4c5.9,0,10.5,4.7,10.5,10.5C77.4,44.3,72.7,48.9,66.9,48.9z"/>
</svg>
