<?xml version="1.0" encoding="utf-8"?>
<!-- Generator: Adobe Illustrator 25.4.1, SVG Export Plug-In . SVG Version: 6.00 Build 0)  -->
<svg version="1.1" id="Layer_1" xmlns="http://www.w3.org/2000/svg" xmlns:xlink="http://www.w3.org/1999/xlink" x="0px" y="0px"
	 viewBox="0 0 90 59.5" style="enable-background:new 0 0 90 59.5;" xml:space="preserve">
<style type="text/css">
	.st0{fill:none;stroke:#359EED;stroke-width:2;stroke-linecap:round;stroke-miterlimit:10;}
	.st1{fill:#F2F2F2;}
	.st2{fill:#CCCCCC;}
</style>
<g id="_x31_3n">
	<g>
		<circle class="st0" cx="-45.9" cy="-2" r="6.3"/>
		<line class="st0" x1="-45.9" y1="-12.5" x2="-45.9" y2="-8.3"/>
		<line class="st0" x1="-56" y1="-7.8" x2="-52.2" y2="-5.6"/>
		<line class="st0" x1="-56" y1="3.9" x2="-52.2" y2="1.6"/>
		<line class="st0" x1="-45.9" y1="10.6" x2="-45.9" y2="6.4"/>
		<line class="st0" x1="-35.9" y1="3.9" x2="-39.6" y2="1.6"/>
		<line class="st0" x1="-35.9" y1="-7.8" x2="-39.6" y2="-5.6"/>
	</g>
	<path class="st1" d="M-20.7-29.3h-6.4c-1.1-11.7-10.9-21-22.9-21c-12.1,0-22.1,9.3-22.9,21.1c-7.2,1.1-12.8,7.1-12.8,14.6
		c0,8.1,6.6,14.7,14.7,14.7c1.2,0,2.1-0.9,2.1-2.1c0-1.2-0.9-2.1-2.1-2.1c-5.9,0-10.5-4.6-10.5-10.5s4.6-10.5,10.5-10.5
		s10.5,4.6,10.5,10.5c0,1.2,0.9,2.1,2.1,2.1c1.2,0,2.1-0.9,2.1-2.1c0-7.4-5.4-13.5-12.4-14.6c0.9-9.4,9-16.9,18.7-16.9
		c10.4,0,18.9,8.6,18.9,18.9c0,1.2,0.9,2.1,2.1,2.1h8.4c5.9,0,10.5,4.6,10.5,10.5S-14.9-4.1-20.7-4.1c-1.2,0-2.1,0.9-2.1,2.1
		c0,1.2,0.9,2.1,2.1,2.1C-12.6,0.1-6-6.5-6-14.6S-12.6-29.3-20.7-29.3z"/>
</g>
<g id="_x30_4n">
	<path class="st2" d="M74,22h-6.4C66.5,10.3,56.6,1,44.6,1C36.8,1,30,4.8,25.8,10.6c-1.8,2.5-3.2,5.5-3.9,8.8
		c1.8-2.4,4.1-4.2,6.8-5.5c1.7-2.5,3.7-4.7,6.3-6.2c2.8-1.7,6-2.5,9.6-2.5c10.5,0,18.9,8.5,18.9,18.9c0,1.2,0.9,2.1,2.1,2.1H74
		c5.8,0,10.5,4.7,10.5,10.5c0,3-1.3,5.7-3.3,7.7c-1.3,1.2-3,2.1-4.8,2.6c-0.6,1.8-1.7,3.3-3.2,4.5H74c1.9,0,3.8-0.3,5.4-1.1
		c5.4-2.2,9.3-7.5,9.3-13.7C88.7,28.6,82.1,22,74,22z"/>
	<path class="st2" d="M18.3,28.9c0-0.5,0.2-0.9,0.2-1.3c-2.2,1.2-3.9,3.3-4.8,5.7c0.8-0.2,1.7-0.3,2.4-0.3c5.8,0,10.5,4.7,10.5,10.5
		c0,1.2,0.9,2.1,2.1,2.1s2.1-0.9,2.1-2.1C30.8,36,25.4,30,18.3,28.9z M66.5,28.6H60c-1.1-11.7-10.9-21-22.9-21c-0.8,0-1.3,0-2.1,0.2
		c-3.3,0.3-6.4,1.3-9.2,2.8c-5.4,3-9.4,8.3-11.1,14.3c-0.3,1.2-0.6,2.5-0.8,3.9c-1.2,0.2-2.4,0.5-3.4,0.9c-5.4,2.2-9.2,7.5-9.2,13.7
		C1.4,51.4,8,58,16.1,58h50.4c5.6,0,10.5-3.2,12.9-7.8c1.1-1.8,1.7-3.9,1.8-6c0-0.3,0-0.6,0-0.9C81.2,35.2,74.6,28.6,66.5,28.6z
		 M73.2,51.4C71.4,52.9,69,54,66.5,54H16.1c-5.8,0-10.5-4.7-10.5-10.5c0-3,1.3-5.7,3.3-7.7c1.3-1.2,3-2.1,4.8-2.5
		c0.8-0.2,1.7-0.3,2.4-0.3c5.8,0,10.5,4.7,10.5,10.5c0,1.2,0.9,2.1,2.1,2.1s2.1-0.9,2.1-2.1c0-7.3-5.4-13.5-12.4-14.5
		c0-0.5,0.2-0.9,0.2-1.3c0.3-1.8,0.9-3.5,1.7-5.1c0.4-1,1.1-2.1,1.8-3c1.8-2.4,4.1-4.2,6.8-5.5c2.6-1.3,5.4-2,8.4-2
		C47.6,12,56,20.4,56,30.9c0,1.2,0.9,2.1,2.1,2.1h8.4C72.3,33,77,37.6,77,43.5c0,1.2-0.2,2.4-0.6,3.4C75.8,48.6,74.7,50.2,73.2,51.4
		z"/>
</g>
</svg>
