<?xml version="1.0" encoding="utf-8"?>
<!-- Generator: Adobe Illustrator 25.4.1, SVG Export Plug-In . SVG Version: 6.00 Build 0)  -->
<svg version="1.1" id="Layer_1" xmlns="http://www.w3.org/2000/svg" xmlns:xlink="http://www.w3.org/1999/xlink" x="0px" y="0px"
	 viewBox="0 0 90 65" style="enable-background:new 0 0 90 65;" xml:space="preserve">
<style type="text/css">
	.st0{fill:none;stroke:#359EED;stroke-width:2;stroke-linecap:round;stroke-miterlimit:10;}
	.st1{fill:#F2F2F2;}
	.st2{fill:#CCCCCC;}
</style>
<g id="_x31_3n">
	<g>
		<circle class="st0" cx="-45.9" cy="0.4" r="6.3"/>
		<line class="st0" x1="-45.9" y1="-10.1" x2="-45.9" y2="-5.9"/>
		<line class="st0" x1="-56" y1="-5.5" x2="-52.2" y2="-3.2"/>
		<line class="st0" x1="-56" y1="6.2" x2="-52.2" y2="4"/>
		<line class="st0" x1="-45.9" y1="13" x2="-45.9" y2="8.8"/>
		<line class="st0" x1="-35.9" y1="6.2" x2="-39.6" y2="4"/>
		<line class="st0" x1="-35.9" y1="-5.5" x2="-39.6" y2="-3.2"/>
	</g>
	<path class="st1" d="M-20.7-26.9h-6.4c-1.1-11.7-10.9-21-22.9-21c-12.1,0-22.1,9.3-22.9,21.1c-7.2,1.1-12.8,7.1-12.8,14.6
		c0,8.1,6.6,14.7,14.7,14.7c1.2,0,2.1-0.9,2.1-2.1c0-1.2-0.9-2.1-2.1-2.1c-5.9,0-10.5-4.6-10.5-10.5s4.6-10.5,10.5-10.5
		s10.5,4.6,10.5,10.5c0,1.2,0.9,2.1,2.1,2.1c1.2,0,2.1-0.9,2.1-2.1c0-7.4-5.4-13.5-12.4-14.6c0.9-9.4,9-16.9,18.7-16.9
		c10.4,0,18.9,8.6,18.9,18.9c0,1.2,0.9,2.1,2.1,2.1h8.4c5.9,0,10.5,4.6,10.5,10.5S-14.9-1.7-20.7-1.7c-1.2,0-2.1,0.9-2.1,2.1
		c0,1.2,0.9,2.1,2.1,2.1C-12.6,2.5-6-4.1-6-12.2S-12.6-26.9-20.7-26.9z"/>
</g>
<g id="_x30_9n">
	<g>
		<line class="st0" x1="34.5" y1="46.2" x2="32.4" y2="50.4"/>
		<line class="st0" x1="34.5" y1="58.8" x2="32.4" y2="63"/>
		<line class="st0" x1="47.1" y1="46.2" x2="45" y2="50.4"/>
		<line class="st0" x1="47.1" y1="58.8" x2="45" y2="63"/>
		<line class="st0" x1="59.7" y1="46.2" x2="57.6" y2="50.4"/>
		<line class="st0" x1="59.7" y1="58.8" x2="57.6" y2="63"/>
	</g>
	<path class="st2" d="M70.2,23.1h-6.5c-1-11.7-11-21-23-21c-12.1,0-22,9.3-23,21.2c-7.2,1-12.8,7-12.8,14.5
		c0,8.1,6.6,14.7,14.7,14.7c1.2,0,2.1-0.9,2.1-2.1s-0.9-2.1-2.1-2.1c-5.9,0-10.5-4.7-10.5-10.5S14,27.3,19.8,27.3
		s10.5,4.7,10.5,10.5c0,1.2,0.9,2.1,2.1,2.1c1.2,0,2.1-0.9,2.1-2.1c0-7.3-5.4-13.5-12.5-14.5c0.9-9.5,9-17,18.7-17
		c10.4,0,18.9,8.5,18.9,18.9c0,1.2,0.9,2.1,2.1,2.1h8.4c5.8,0,10.5,4.7,10.5,10.5s-4.7,10.5-10.5,10.5c-1.2,0-2.1,0.9-2.1,2.1
		s0.9,2.1,2.1,2.1c8.1,0,14.7-6.6,14.7-14.7S78.3,23.1,70.2,23.1z"/>
</g>
</svg>
