<?xml version="1.0" encoding="utf-8"?>
<!-- Generator: Adobe Illustrator 25.4.1, SVG Export Plug-In . SVG Version: 6.00 Build 0)  -->
<svg version="1.1" id="Layer_1" xmlns="http://www.w3.org/2000/svg" xmlns:xlink="http://www.w3.org/1999/xlink" x="0px" y="0px"
	 viewBox="0 0 90.6 79.6" style="enable-background:new 0 0 90.6 79.6;" xml:space="preserve">
<style type="text/css">
	.st0{fill:none;stroke:#359EED;stroke-width:2;stroke-linecap:round;stroke-miterlimit:10;}
	.st1{fill:#F2F2F2;}
	.st2{fill:none;stroke:#FCEE21;stroke-width:2;stroke-linecap:round;stroke-miterlimit:10;}
	.st3{fill:none;stroke:#FFFF00;stroke-width:2;stroke-linecap:round;stroke-miterlimit:10;}
</style>
<g id="_x31_3n">
	<g>
		<circle class="st0" cx="-45.9" cy="7.1" r="6.3"/>
		<line class="st0" x1="-45.9" y1="-3.4" x2="-45.9" y2="0.8"/>
		<line class="st0" x1="-56" y1="1.3" x2="-52.2" y2="3.5"/>
		<line class="st0" x1="-56" y1="13" x2="-52.2" y2="10.7"/>
		<line class="st0" x1="-45.9" y1="19.7" x2="-45.9" y2="15.5"/>
		<line class="st0" x1="-35.9" y1="13" x2="-39.6" y2="10.7"/>
		<line class="st0" x1="-35.9" y1="1.3" x2="-39.6" y2="3.5"/>
	</g>
	<path class="st1" d="M-20.7-20.2h-6.4c-1.1-11.7-10.9-21-22.9-21c-12.1,0-22.1,9.3-22.9,21.1C-80.3-19-85.8-13-85.8-5.5
		c0,8.1,6.6,14.7,14.7,14.7c1.2,0,2.1-0.9,2.1-2.1c0-1.2-0.9-2.1-2.1-2.1C-77,5-81.6,0.4-81.6-5.5S-77-16-71.1-16
		s10.5,4.6,10.5,10.5c0,1.2,0.9,2.1,2.1,2.1c1.2,0,2.1-0.9,2.1-2.1c0-7.4-5.4-13.5-12.4-14.6c0.9-9.4,9-16.9,18.7-16.9
		c10.4,0,18.9,8.6,18.9,18.9c0,1.2,0.9,2.1,2.1,2.1h8.4c5.9,0,10.5,4.6,10.5,10.5S-14.9,5-20.7,5c-1.2,0-2.1,0.9-2.1,2.1
		c0,1.2,0.9,2.1,2.1,2.1C-12.6,9.2-6,2.6-6-5.5S-12.6-20.2-20.7-20.2z"/>
</g>
<g id="_x31_0d">
	<path class="st2" d="M46.1,20.3c3.1-3.6,7.6-5.8,12.8-5.8c9.3,0,16.8,7.5,16.8,16.8c0,3.6-1,6.9-3,9.6"/>
	<line class="st3" x1="58.8" y1="1.9" x2="58.8" y2="6.1"/>
	<line class="st3" x1="88.2" y1="31.3" x2="84" y2="31.3"/>
	<line class="st3" x1="79.7" y1="10.4" x2="76.7" y2="13.4"/>
	<g>
		<line class="st0" x1="31.5" y1="60.7" x2="29.4" y2="64.9"/>
		<line class="st0" x1="31.5" y1="73.3" x2="29.4" y2="77.5"/>
		<line class="st0" x1="44.1" y1="60.7" x2="42" y2="64.9"/>
		<line class="st0" x1="44.1" y1="73.3" x2="42" y2="77.5"/>
		<line class="st0" x1="56.7" y1="60.7" x2="54.6" y2="64.9"/>
		<line class="st0" x1="56.7" y1="73.3" x2="54.6" y2="77.5"/>
	</g>
	<path class="st1" d="M67.2,62.8c-1.2,0-2.1,0.9-2.1,2.1c0,1.2,0.9,2.1,2.1,2.1c8.1,0,14.7-6.6,14.7-14.7s-6.6-14.7-14.7-14.7h-6.5
		c-1-11.7-11-21-23-21c-12.1,0-22,9.3-23,21.2C7.7,38.8,2.1,44.8,2.1,52.3C2.1,60.4,8.7,67,16.8,67c1.2,0,2.1-0.9,2.1-2.1
		c0-1.2-0.9-2.1-2.1-2.1c-5.9,0-10.5-4.7-10.5-10.5S11,41.8,16.8,41.8s10.5,4.7,10.5,10.5c0,1.2,0.9,2.1,2.1,2.1s2.1-0.9,2.1-2.1
		c0-7.3-5.4-13.5-12.5-14.6c0.9-9.4,9-16.9,18.7-16.9c10.4,0,18.9,8.6,18.9,18.9c0,1.2,0.9,2.1,2.1,2.1h8.4
		c5.8,0,10.5,4.7,10.5,10.5C77.7,58.1,73.1,62.8,67.2,62.8z"/>
</g>
</svg>
