<?xml version="1.0" encoding="utf-8"?>
<!-- Generator: Adobe Illustrator 25.4.1, SVG Export Plug-In . SVG Version: 6.00 Build 0)  -->
<svg version="1.1" id="Layer_1" xmlns="http://www.w3.org/2000/svg" xmlns:xlink="http://www.w3.org/1999/xlink" x="0px" y="0px"
	 viewBox="0 0 84.7 69.5" style="enable-background:new 0 0 84.7 69.5;" xml:space="preserve">
<style type="text/css">
	.st0{fill:none;stroke:#359EED;stroke-width:2;stroke-linecap:round;stroke-miterlimit:10;}
	.st1{fill:#F2F2F2;}
	.st2{fill:none;stroke:#333333;stroke-width:2;stroke-linecap:round;stroke-miterlimit:10;}
	.st3{fill:#CCCCCC;}
</style>
<g id="_x31_3n">
	<g>
		<circle class="st0" cx="-48.8" cy="2.2" r="6.3"/>
		<line class="st0" x1="-48.8" y1="-8.3" x2="-48.8" y2="-4.1"/>
		<line class="st0" x1="-58.8" y1="-3.6" x2="-55.1" y2="-1.4"/>
		<line class="st0" x1="-58.8" y1="8.1" x2="-55.1" y2="5.8"/>
		<line class="st0" x1="-48.8" y1="14.8" x2="-48.8" y2="10.6"/>
		<line class="st0" x1="-38.7" y1="8.1" x2="-42.5" y2="5.8"/>
		<line class="st0" x1="-38.7" y1="-3.6" x2="-42.5" y2="-1.4"/>
	</g>
	<path class="st1" d="M-23.6-25.1H-30c-1.1-11.7-10.9-21-22.9-21c-12.1,0-22.1,9.3-22.9,21.1c-7.2,1.1-12.8,7.1-12.8,14.6
		c0,8.1,6.6,14.7,14.7,14.7c1.2,0,2.1-0.9,2.1-2.1c0-1.2-0.9-2.1-2.1-2.1c-5.9,0-10.5-4.6-10.5-10.5s4.6-10.5,10.5-10.5
		s10.5,4.6,10.5,10.5c0,1.2,0.9,2.1,2.1,2.1c1.2,0,2.1-0.9,2.1-2.1c0-7.4-5.4-13.5-12.4-14.6c0.9-9.4,9-16.9,18.8-16.9
		c10.4,0,18.9,8.6,18.9,18.9c0,1.2,0.9,2.1,2.1,2.1h8.4c5.9,0,10.5,4.6,10.5,10.5S-17.7,0.1-23.6,0.1c-1.2,0-2.1,0.9-2.1,2.1
		c0,1.2,0.9,2.1,2.1,2.1c8.1,0,14.7-6.6,14.7-14.7S-15.5-25.1-23.6-25.1z"/>
</g>
<g id="_x31_0n">
	<g>
		<line class="st0" x1="31.3" y1="50.8" x2="29.2" y2="55"/>
		<line class="st0" x1="31.3" y1="63.4" x2="29.2" y2="67.6"/>
		<line class="st0" x1="43.9" y1="50.8" x2="41.8" y2="55"/>
		<line class="st0" x1="43.9" y1="63.4" x2="41.8" y2="67.6"/>
		<line class="st0" x1="56.5" y1="50.8" x2="54.4" y2="55"/>
		<line class="st0" x1="56.5" y1="63.4" x2="54.4" y2="67.6"/>
	</g>
	<path class="st2" d="M74.4,32.4c4.5-3,7.3-8.1,7.3-13.9c0-0.2,0-0.3,0-0.6c-1.3,0.3-2.7,0.6-4.2,0.6c-9.2,0-16.5-7.2-16.8-16.2
		c-5.2,1.3-9.6,5.1-11.5,10.2"/>
	<path class="st3" d="M67,52.9c-1.2,0-2.1,0.9-2.1,2.1s0.9,2.1,2.1,2.1c8.1,0,14.7-6.6,14.7-14.7S75.1,27.7,67,27.7h-6.4
		c-1.1-11.7-11-21-23-21c-12.2,0-22,9.3-23,21.2C7.5,28.9,1.9,34.9,1.9,42.4c0,8.1,6.6,14.7,14.7,14.7c1.2,0,2.1-0.9,2.1-2.1
		s-0.9-2.1-2.1-2.1c-5.8,0-10.5-4.7-10.5-10.5s4.7-10.5,10.5-10.5s10.5,4.7,10.5,10.5c0,1.2,0.9,2.1,2.1,2.1s2.1-0.9,2.1-2.1
		c0-7.3-5.4-13.5-12.5-14.6c0.9-9.4,9-16.9,18.8-16.9c10.3,0,18.9,8.6,18.9,18.9c0,1.2,0.9,2.1,2.1,2.1H67c5.8,0,10.5,4.7,10.5,10.5
		C77.5,48.3,72.9,52.9,67,52.9z"/>
</g>
</svg>
