<?xml version="1.0" encoding="utf-8"?>
<!-- Generator: Adobe Illustrator 25.4.1, SVG Export Plug-In . SVG Version: 6.00 Build 0)  -->
<svg version="1.1" id="Layer_1" xmlns="http://www.w3.org/2000/svg" xmlns:xlink="http://www.w3.org/1999/xlink" x="0px" y="0px"
	 viewBox="0 0 84.7 67.3" style="enable-background:new 0 0 84.7 67.3;" xml:space="preserve">
<style type="text/css">
	.st0{fill:none;stroke:#359EED;stroke-width:2;stroke-linecap:round;stroke-miterlimit:10;}
	.st1{fill:#F2F2F2;}
	.st2{fill:none;stroke:#359EED;stroke-width:2;stroke-linecap:round;stroke-linejoin:round;stroke-miterlimit:10;}
</style>
<g id="_x31_3n">
	<g>
		<circle class="st0" cx="-48.8" cy="1.1" r="6.3"/>
		<line class="st0" x1="-48.8" y1="-9.4" x2="-48.8" y2="-5.2"/>
		<line class="st0" x1="-58.8" y1="-4.8" x2="-55.1" y2="-2.5"/>
		<line class="st0" x1="-58.8" y1="6.9" x2="-55.1" y2="4.7"/>
		<line class="st0" x1="-48.8" y1="13.7" x2="-48.8" y2="9.5"/>
		<line class="st0" x1="-38.7" y1="6.9" x2="-42.5" y2="4.7"/>
		<line class="st0" x1="-38.7" y1="-4.8" x2="-42.5" y2="-2.5"/>
	</g>
	<path class="st1" d="M-23.6-26.2H-30c-1.1-11.7-10.9-21-22.9-21c-12.1,0-22.1,9.3-22.9,21.1C-83.1-25-88.7-19-88.7-11.5
		c0,8.1,6.6,14.7,14.7,14.7c1.2,0,2.1-0.9,2.1-2.1c0-1.2-0.9-2.1-2.1-2.1c-5.9,0-10.5-4.6-10.5-10.5S-79.8-22-74-22
		s10.5,4.6,10.5,10.5c0,1.2,0.9,2.1,2.1,2.1c1.2,0,2.1-0.9,2.1-2.1c0-7.4-5.4-13.5-12.4-14.6c0.9-9.4,9-16.9,18.8-16.9
		c10.4,0,18.9,8.6,18.9,18.9c0,1.2,0.9,2.1,2.1,2.1h8.4c5.9,0,10.5,4.6,10.5,10.5S-17.7-1-23.6-1c-1.2,0-2.1,0.9-2.1,2.1
		c0,1.2,0.9,2.1,2.1,2.1c8.1,0,14.7-6.6,14.7-14.7S-15.5-26.2-23.6-26.2z"/>
</g>
<g id="_x31_1n">
	<polyline class="st2" points="42.3,38.9 38.1,51.5 46.5,51.5 42.3,64.1 	"/>
	<path class="st1" d="M67.5,24.2h-6.4c-1.1-11.7-10.9-21-22.9-21c-12.1,0-22.1,9.3-22.9,21.2C8,25.4,2.4,31.4,2.4,38.9
		C2.4,47,9,53.6,17.1,53.6c1.2,0,2.1-0.9,2.1-2.1s-0.9-2.1-2.1-2.1c-5.9,0-10.5-4.7-10.5-10.5s4.6-10.5,10.5-10.5S27.6,33,27.6,38.9
		c0,1.2,0.9,2.1,2.1,2.1c1.2,0,2.1-0.9,2.1-2.1c0-7.3-5.4-13.5-12.4-14.6c0.9-9.4,9-16.9,18.8-16.9C48.5,7.4,57,15.9,57,26.3
		c0,1.2,0.9,2.1,2.1,2.1h8.4C73.4,28.4,78,33,78,38.9s-4.6,10.5-10.5,10.5c-1.2,0-2.1,0.9-2.1,2.1s0.9,2.1,2.1,2.1
		c8.1,0,14.7-6.6,14.7-14.7S75.6,24.2,67.5,24.2z"/>
</g>
</svg>
