<?xml version="1.0" encoding="utf-8"?>
<!-- Generator: Adobe Illustrator 25.4.1, SVG Export Plug-In . SVG Version: 6.00 Build 0)  -->
<svg version="1.1" id="Layer_1" xmlns="http://www.w3.org/2000/svg" xmlns:xlink="http://www.w3.org/1999/xlink" x="0px" y="0px"
	 viewBox="0 0 84.7 67.3" style="enable-background:new 0 0 84.7 67.3;" xml:space="preserve">
<style type="text/css">
	.st0{fill:none;stroke:#359EED;stroke-width:2;stroke-linecap:round;stroke-miterlimit:10;}
	.st1{fill:#F2F2F2;}
</style>
<g id="_x31_3n">
	<g>
		<circle class="st0" cx="42.5" cy="51.1" r="6.3"/>
		<line class="st0" x1="42.5" y1="40.6" x2="42.5" y2="44.8"/>
		<line class="st0" x1="32.5" y1="45.3" x2="36.2" y2="47.5"/>
		<line class="st0" x1="32.5" y1="57" x2="36.2" y2="54.7"/>
		<line class="st0" x1="42.5" y1="63.7" x2="42.5" y2="59.5"/>
		<line class="st0" x1="52.6" y1="57" x2="48.8" y2="54.7"/>
		<line class="st0" x1="52.6" y1="45.3" x2="48.8" y2="47.5"/>
	</g>
	<path class="st1" d="M67.7,23.8h-6.4c-1.1-11.7-10.9-21-22.9-21c-12.1,0-22.1,9.3-22.9,21.1C8.2,25,2.6,31,2.6,38.5
		c0,8.1,6.6,14.7,14.7,14.7c1.2,0,2.1-0.9,2.1-2.1c0-1.2-0.9-2.1-2.1-2.1c-5.9,0-10.5-4.6-10.5-10.5S11.5,28,17.3,28
		s10.5,4.6,10.5,10.5c0,1.2,0.9,2.1,2.1,2.1c1.2,0,2.1-0.9,2.1-2.1C32,31.2,26.6,25,19.6,24C20.5,14.5,28.6,7,38.3,7
		c10.4,0,18.9,8.6,18.9,18.9c0,1.2,0.9,2.1,2.1,2.1h8.4c5.9,0,10.5,4.6,10.5,10.5S73.6,49,67.7,49c-1.2,0-2.1,0.9-2.1,2.1
		c0,1.2,0.9,2.1,2.1,2.1c8.1,0,14.7-6.6,14.7-14.7S75.8,23.8,67.7,23.8z"/>
</g>
</svg>
