<?xml version="1.0" encoding="utf-8"?>
<!-- Generator: Adobe Illustrator 25.4.1, SVG Export Plug-In . SVG Version: 6.00 Build 0)  -->
<svg version="1.1" id="Layer_1" xmlns="http://www.w3.org/2000/svg" xmlns:xlink="http://www.w3.org/1999/xlink" x="0px" y="0px"
	 viewBox="0 0 88.5 79.8" style="enable-background:new 0 0 88.5 79.8;" xml:space="preserve">
<style type="text/css">
	.st0{fill:none;stroke:#FCEE21;stroke-width:2;stroke-linecap:round;stroke-miterlimit:10;}
	.st1{fill:none;stroke:#FFFF00;stroke-width:2;stroke-linecap:round;stroke-miterlimit:10;}
	.st2{fill:none;stroke:#359EED;stroke-width:2;stroke-linecap:round;stroke-miterlimit:10;}
	.st3{fill:#F2F2F2;}
</style>
<g id="_x35_0d">
	<path class="st0" d="M44.7,20.6c3.1-3.6,7.6-5.9,12.8-5.9c9.3,0,16.8,7.5,16.8,16.8c0,3.6-1.1,6.9-3,9.6"/>
	<line class="st1" x1="57.5" y1="2.1" x2="57.5" y2="6.3"/>
	<line class="st1" x1="86.9" y1="31.5" x2="82.7" y2="31.5"/>
	<line class="st1" x1="78.3" y1="10.7" x2="75.3" y2="13.7"/>
	<line class="st2" x1="57.5" y1="60.9" x2="23.9" y2="60.9"/>
	<line class="st2" x1="53.3" y1="69.3" x2="23.9" y2="69.3"/>
	<line class="st2" x1="15.5" y1="77.7" x2="2.9" y2="77.7"/>
	<line class="st2" x1="49.1" y1="77.7" x2="23.9" y2="77.7"/>
	<path class="st3" d="M15.5,67.2c1.2,0,2.1-0.9,2.1-2.1c0-1.2-0.9-2.1-2.1-2.1C9.6,63,5,58.4,5,52.5S9.6,42,15.5,42S26,46.7,26,52.5
		c0,1.2,0.9,2.1,2.1,2.1s2.1-0.9,2.1-2.1c0-7.4-5.4-13.5-12.4-14.6c0.9-9.4,9-16.9,18.8-16.9c10.4,0,18.9,8.6,18.9,18.9
		c0,1.2,0.9,2.1,2.1,2.1h8.4c5.9,0,10.5,4.6,10.5,10.5S71.7,63,65.9,63c-1.2,0-2.1,0.9-2.1,2.1c0,1.2,0.9,2.1,2.1,2.1
		c8.1,0,14.7-6.6,14.7-14.7c0-8.1-6.6-14.7-14.7-14.7h-6.4c-1.1-11.7-10.9-21-22.9-21c-12.1,0-22.1,9.3-22.9,21.1
		C6.3,39,0.8,45,0.8,52.5C0.8,60.6,7.4,67.2,15.5,67.2z"/>
</g>
</svg>
