<?xml version="1.0" encoding="utf-8"?>
<!-- Generator: Adobe Illustrator 25.4.1, SVG Export Plug-In . SVG Version: 6.00 Build 0)  -->
<svg version="1.1" id="Layer_1" xmlns="http://www.w3.org/2000/svg" xmlns:xlink="http://www.w3.org/1999/xlink" x="0px" y="0px"
	 viewBox="0 0 80.7 69.9" style="enable-background:new 0 0 80.7 69.9;" xml:space="preserve">
<style type="text/css">
	.st0{fill:none;stroke:#333333;stroke-width:2;stroke-linecap:round;stroke-miterlimit:10;}
	.st1{fill:none;stroke:#359EED;stroke-width:2;stroke-linecap:round;stroke-miterlimit:10;}
	.st2{fill:#CCCCCC;}
</style>
<g id="_x35_0n">
	<path class="st0" d="M70.8,31.9c4.5-3,7.3-8.1,7.3-13.9c0-0.1,0-0.3,0-0.6c-1.3,0.3-2.7,0.6-4.2,0.6c-9.2,0-16.5-7.2-16.8-16.2
		c-5.2,1.4-9.6,5.1-11.6,10.2"/>
	<line class="st1" x1="59.2" y1="51.5" x2="25.6" y2="51.5"/>
	<line class="st1" x1="55" y1="59.9" x2="25.6" y2="59.9"/>
	<line class="st1" x1="17.2" y1="68.3" x2="4.6" y2="68.3"/>
	<line class="st1" x1="50.8" y1="68.3" x2="25.6" y2="68.3"/>
	<path class="st2" d="M65.5,28.4h-6.4c-1.1-11.7-10.9-21-22.9-21c-12.2,0-22.1,9.3-22.9,21.1C6,29.6,0.4,35.6,0.4,43.1
		c0,8.1,6.6,14.7,14.7,14.7c1.2,0,2.1-0.9,2.1-2.1c0-1.2-0.9-2.1-2.1-2.1C9.3,53.6,4.6,49,4.6,43.1s4.7-10.5,10.5-10.5
		s10.5,4.6,10.5,10.5c0,1.2,0.9,2.1,2.1,2.1s2.1-0.9,2.1-2.1c0-7.4-5.4-13.5-12.4-14.6c0.9-9.4,9-16.9,18.8-16.9
		c10.3,0,18.9,8.6,18.9,18.9c0,1.2,0.9,2.1,2.1,2.1h8.4c5.8,0,10.5,4.6,10.5,10.5s-4.7,10.5-10.5,10.5c-1.2,0-2.1,0.9-2.1,2.1
		c0,1.2,0.9,2.1,2.1,2.1c8.1,0,14.7-6.6,14.7-14.7S73.6,28.4,65.5,28.4z"/>
</g>
</svg>
