<?xml version="1.0" encoding="utf-8"?>
<!-- Generator: Adobe Illustrator 25.4.1, SVG Export Plug-In . SVG Version: 6.00 Build 0)  -->
<svg version="1.1" id="Layer_1" xmlns="http://www.w3.org/2000/svg" xmlns:xlink="http://www.w3.org/1999/xlink" x="0px" y="0px"
	 viewBox="0 0 800 800" style="enable-background:new 0 0 800 800;" xml:space="preserve">
<style type="text/css">
	.st0{fill:none;stroke:#FFFF00;stroke-width:2;stroke-linecap:round;stroke-miterlimit:10;}
	.st1{fill:none;stroke:#FCEE21;stroke-width:2;stroke-linecap:round;stroke-miterlimit:10;}
	.st2{fill:none;stroke:#333333;stroke-width:2;stroke-linecap:round;stroke-miterlimit:10;}
	.st3{fill:#F2F2F2;}
	.st4{fill:#CCCCCC;}
	.st5{fill:none;stroke:#359EED;stroke-width:2;stroke-linecap:round;stroke-miterlimit:10;}
	.st6{fill:none;stroke:#359EED;stroke-width:2;stroke-linecap:round;stroke-linejoin:round;stroke-miterlimit:10;}
</style>
<g id="_x30_1d_00000106149809279002883500000015049969843735731903_">
	<line class="st0" x1="108" y1="81.4" x2="108" y2="87"/>
	<line class="st0" x1="89.2" y1="89.2" x2="93.2" y2="93.2"/>
	<line class="st0" x1="81.4" y1="108" x2="87" y2="108"/>
	<line class="st0" x1="89.2" y1="126.8" x2="93.2" y2="122.8"/>
	<line class="st0" x1="108" y1="134.6" x2="108" y2="129"/>
	<line class="st0" x1="126.8" y1="126.8" x2="122.8" y2="122.8"/>
	<line class="st0" x1="134.6" y1="108" x2="129" y2="108"/>
	<line class="st0" x1="126.8" y1="89.2" x2="122.8" y2="93.2"/>
	<circle class="st1" cx="108" cy="108" r="12.6"/>
</g>
<path id="_x30_1n" class="st2" d="M261.8,111.5c-6.2,0-11.2-5-11.2-11.2c0-1.8,0.4-3.4,1.1-4.9c-6.9,0.1-12.4,5.7-12.4,12.6
	c0,7,5.6,12.6,12.6,12.6c5.8,0,10.7-3.9,12.1-9.3C263.4,111.5,262.6,111.5,261.8,111.5z"/>
<g id="_x30_2d">
	<path class="st1" d="M396.6,98.6c2.1-2.4,5.1-3.9,8.5-3.9c6.2,0,11.2,5,11.2,11.2c0,2.4-0.7,4.6-2,6.4"/>
	<line class="st0" x1="405.1" y1="86.3" x2="405.1" y2="89.1"/>
	<line class="st0" x1="424.7" y1="105.9" x2="421.9" y2="105.9"/>
	<line class="st0" x1="419" y1="92" x2="417" y2="94"/>
	<path class="st3" d="M377.1,129.7h33.6c5.4,0,9.8-4.4,9.8-9.8c0-5.4-4.4-9.8-9.8-9.8h-4.3c-0.7-7.8-7.3-14-15.3-14
		c-8.1,0-14.7,6.2-15.3,14.1c-4.8,0.7-8.5,4.7-8.5,9.7C367.3,125.3,371.7,129.7,377.1,129.7z M377.1,112.9c3.9,0,7,3.1,7,7
		c0,0.8,0.6,1.4,1.4,1.4s1.4-0.6,1.4-1.4c0-4.9-3.6-9-8.3-9.7c0.6-6.3,6-11.3,12.5-11.3c6.9,0,12.6,5.7,12.6,12.6
		c0,0.8,0.6,1.4,1.4,1.4h5.6c3.9,0,7,3.1,7,7c0,3.9-3.1,7-7,7h-33.6c-3.9,0-7-3.1-7-7C370.1,116,373.2,112.9,377.1,112.9z"/>
</g>
<g id="_x30_2n">
	<path class="st2" d="M558.4,112.2c3-2,4.9-5.4,4.9-9.3c0-0.1,0-0.2,0-0.4c-0.9,0.2-1.8,0.4-2.8,0.4c-6.1,0-11-4.8-11.2-10.8
		c-3.5,0.9-6.4,3.4-7.7,6.8"/>
	<path class="st4" d="M521.1,129.7h33.6c5.4,0,9.8-4.4,9.8-9.8c0-5.4-4.4-9.8-9.8-9.8h-4.3c-0.7-7.8-7.3-14-15.3-14
		c-8.1,0-14.7,6.2-15.3,14.1c-4.8,0.7-8.5,4.7-8.5,9.7C511.3,125.3,515.7,129.7,521.1,129.7z M521.1,112.9c3.9,0,7,3.1,7,7
		c0,0.8,0.6,1.4,1.4,1.4s1.4-0.6,1.4-1.4c0-4.9-3.6-9-8.3-9.7c0.6-6.3,6-11.3,12.5-11.3c6.9,0,12.6,5.7,12.6,12.6
		c0,0.8,0.6,1.4,1.4,1.4h5.6c3.9,0,7,3.1,7,7c0,3.9-3.1,7-7,7h-33.6c-3.9,0-7-3.1-7-7C514.1,116,517.2,112.9,521.1,112.9z"/>
</g>
<path id="_x30_3d" class="st3" d="M700.8,105.2h-4.3c-0.7-7.8-7.3-14-15.3-14c-8.1,0-14.7,6.2-15.3,14.1c-4.8,0.7-8.5,4.7-8.5,9.7
	c0,5.4,4.4,9.8,9.8,9.8h33.6c5.4,0,9.8-4.4,9.8-9.8S706.2,105.2,700.8,105.2z M700.8,122h-33.6c-3.9,0-7-3.1-7-7s3.1-7,7-7
	s7,3.1,7,7c0,0.8,0.6,1.4,1.4,1.4c0.8,0,1.4-0.6,1.4-1.4c0-4.9-3.6-9-8.3-9.7c0.6-6.3,6-11.3,12.5-11.3c6.9,0,12.6,5.7,12.6,12.6
	c0,0.8,0.6,1.4,1.4,1.4h5.6c3.9,0,7,3.1,7,7S704.7,122,700.8,122z"/>
<path id="_x30_3n" class="st4" d="M700.8,249.2h-4.3c-0.7-7.8-7.3-14-15.3-14c-8.1,0-14.7,6.2-15.3,14.1c-4.8,0.7-8.5,4.7-8.5,9.7
	c0,5.4,4.4,9.8,9.8,9.8h33.6c5.4,0,9.8-4.4,9.8-9.8C710.6,253.6,706.2,249.2,700.8,249.2z M700.8,266h-33.6c-3.9,0-7-3.1-7-7
	c0-3.9,3.1-7,7-7s7,3.1,7,7c0,0.8,0.6,1.4,1.4,1.4c0.8,0,1.4-0.6,1.4-1.4c0-4.9-3.6-9-8.3-9.7c0.6-6.3,6-11.3,12.5-11.3
	c6.9,0,12.6,5.7,12.6,12.6c0,0.8,0.6,1.4,1.4,1.4h5.6c3.9,0,7,3.1,7,7C707.8,262.9,704.7,266,700.8,266z"/>
<g id="_x30_4d">
	<path class="st3" d="M559.3,247H555c-0.7-7.8-7.3-14-15.3-14c-5.2,0-9.7,2.5-12.5,6.4c-1.2,1.7-2.1,3.7-2.6,5.9
		c1.2-1.6,2.7-2.8,4.5-3.7c1.1-1.7,2.5-3.1,4.2-4.1c1.9-1.1,4-1.7,6.4-1.7c7,0,12.6,5.7,12.6,12.6c0,0.8,0.6,1.4,1.4,1.4h5.6
		c3.9,0,7,3.1,7,7c0,2-0.9,3.8-2.2,5.1c-0.9,0.8-2,1.4-3.2,1.7c-0.4,1.2-1.1,2.2-2.1,3h0.5c1.3,0,2.5-0.2,3.6-0.7
		c3.6-1.5,6.2-5,6.2-9.1C569.1,251.4,564.7,247,559.3,247z"/>
	<path class="st3" d="M522.2,251.6c0-0.3,0.1-0.6,0.1-0.9c-1.5,0.8-2.6,2.2-3.2,3.8c0.5-0.1,1.1-0.2,1.6-0.2c3.9,0,7,3.1,7,7
		c0,0.8,0.6,1.4,1.4,1.4c0.8,0,1.4-0.6,1.4-1.4C530.5,256.3,526.9,252.3,522.2,251.6z M554.3,251.4H550c-0.7-7.8-7.3-14-15.3-14
		c-0.5,0-0.9,0-1.4,0.1c-2.2,0.2-4.3,0.9-6.1,1.9c-3.6,2-6.3,5.5-7.4,9.5c-0.2,0.8-0.4,1.7-0.5,2.6c-0.8,0.1-1.6,0.3-2.3,0.6
		c-3.6,1.5-6.1,5-6.1,9.1c0,5.4,4.4,9.8,9.8,9.8h33.6c3.7,0,7-2.1,8.6-5.2c0.7-1.2,1.1-2.6,1.2-4c0-0.2,0-0.4,0-0.6
		C564.1,255.8,559.7,251.4,554.3,251.4z M558.8,266.6c-1.2,1-2.8,1.7-4.5,1.7h-33.6c-3.9,0-7-3.1-7-7c0-2,0.9-3.8,2.2-5.1
		c0.9-0.8,2-1.4,3.2-1.7c0.5-0.1,1.1-0.2,1.6-0.2c3.9,0,7,3.1,7,7c0,0.8,0.6,1.4,1.4,1.4c0.8,0,1.4-0.6,1.4-1.4c0-4.9-3.6-9-8.3-9.7
		c0-0.3,0.1-0.6,0.1-0.9c0.2-1.2,0.6-2.3,1.1-3.4c0.3-0.7,0.7-1.4,1.2-2c1.2-1.6,2.7-2.8,4.5-3.7c1.7-0.9,3.6-1.3,5.6-1.3
		c7,0,12.6,5.6,12.6,12.6c0,0.8,0.6,1.4,1.4,1.4h5.6c3.9,0,7,3.1,7,7c0,0.8-0.1,1.6-0.4,2.3C560.5,264.7,559.8,265.8,558.8,266.6z"
		/>
</g>
<g id="_x30_4n">
	<path class="st4" d="M415.3,247H411c-0.7-7.8-7.3-14-15.3-14c-5.2,0-9.7,2.5-12.5,6.4c-1.2,1.7-2.1,3.7-2.6,5.9
		c1.2-1.6,2.7-2.8,4.5-3.7c1.1-1.7,2.5-3.1,4.2-4.1c1.9-1.1,4-1.7,6.4-1.7c7,0,12.6,5.7,12.6,12.6c0,0.8,0.6,1.4,1.4,1.4h5.6
		c3.9,0,7,3.1,7,7c0,2-0.9,3.8-2.2,5.1c-0.9,0.8-2,1.4-3.2,1.7c-0.4,1.2-1.1,2.2-2.1,3h0.5c1.3,0,2.5-0.2,3.6-0.7
		c3.6-1.5,6.2-5,6.2-9.1C425.1,251.4,420.7,247,415.3,247z"/>
	<path class="st4" d="M378.2,251.6c0-0.3,0.1-0.6,0.1-0.9c-1.5,0.8-2.6,2.2-3.2,3.8c0.5-0.1,1.1-0.2,1.6-0.2c3.9,0,7,3.1,7,7
		c0,0.8,0.6,1.4,1.4,1.4c0.8,0,1.4-0.6,1.4-1.4C386.5,256.3,382.9,252.3,378.2,251.6z M410.3,251.4H406c-0.7-7.8-7.3-14-15.3-14
		c-0.5,0-0.9,0-1.4,0.1c-2.2,0.2-4.3,0.9-6.1,1.9c-3.6,2-6.3,5.5-7.4,9.5c-0.2,0.8-0.4,1.7-0.5,2.6c-0.8,0.1-1.6,0.3-2.3,0.6
		c-3.6,1.5-6.1,5-6.1,9.1c0,5.4,4.4,9.8,9.8,9.8h33.6c3.7,0,7-2.1,8.6-5.2c0.7-1.2,1.1-2.6,1.2-4c0-0.2,0-0.4,0-0.6
		C420.1,255.8,415.7,251.4,410.3,251.4z M414.8,266.6c-1.2,1-2.8,1.7-4.5,1.7h-33.6c-3.9,0-7-3.1-7-7c0-2,0.9-3.8,2.2-5.1
		c0.9-0.8,2-1.4,3.2-1.7c0.5-0.1,1.1-0.2,1.6-0.2c3.9,0,7,3.1,7,7c0,0.8,0.6,1.4,1.4,1.4c0.8,0,1.4-0.6,1.4-1.4c0-4.9-3.6-9-8.3-9.7
		c0-0.3,0.1-0.6,0.1-0.9c0.2-1.2,0.6-2.3,1.1-3.4c0.3-0.7,0.7-1.4,1.2-2c1.2-1.6,2.7-2.8,4.5-3.7c1.7-0.9,3.6-1.3,5.6-1.3
		c7,0,12.6,5.6,12.6,12.6c0,0.8,0.6,1.4,1.4,1.4h5.6c3.9,0,7,3.1,7,7c0,0.8-0.1,1.6-0.4,2.3C416.5,264.7,415.8,265.8,414.8,266.6z"
		/>
</g>
<g id="_x30_9d">
	<g>
		<line class="st5" x1="245" y1="261.1" x2="243.6" y2="263.9"/>
		<line class="st5" x1="245" y1="269.5" x2="243.6" y2="272.3"/>
		<line class="st5" x1="253.4" y1="261.1" x2="252" y2="263.9"/>
		<line class="st5" x1="253.4" y1="269.5" x2="252" y2="272.3"/>
		<line class="st5" x1="261.8" y1="261.1" x2="260.4" y2="263.9"/>
		<line class="st5" x1="261.8" y1="269.5" x2="260.4" y2="272.3"/>
	</g>
	<path class="st3" d="M268.8,245.7h-4.3c-0.7-7.8-7.3-14-15.3-14c-8.1,0-14.7,6.2-15.3,14.1c-4.8,0.7-8.5,4.7-8.5,9.7
		c0,5.4,4.4,9.8,9.8,9.8c0.8,0,1.4-0.6,1.4-1.4c0-0.8-0.6-1.4-1.4-1.4c-3.9,0-7-3.1-7-7s3.1-7,7-7s7,3.1,7,7c0,0.8,0.6,1.4,1.4,1.4
		c0.8,0,1.4-0.6,1.4-1.4c0-4.9-3.6-9-8.3-9.7c0.6-6.3,6-11.3,12.5-11.3c6.9,0,12.6,5.7,12.6,12.6c0,0.8,0.6,1.4,1.4,1.4h5.6
		c3.9,0,7,3.1,7,7s-3.1,7-7,7c-0.8,0-1.4,0.6-1.4,1.4c0,0.8,0.6,1.4,1.4,1.4c5.4,0,9.8-4.4,9.8-9.8S274.2,245.7,268.8,245.7z"/>
</g>
<g id="_x30_9n">
	<g>
		<line class="st5" x1="101" y1="261.1" x2="99.6" y2="263.9"/>
		<line class="st5" x1="101" y1="269.5" x2="99.6" y2="272.3"/>
		<line class="st5" x1="109.4" y1="261.1" x2="108" y2="263.9"/>
		<line class="st5" x1="109.4" y1="269.5" x2="108" y2="272.3"/>
		<line class="st5" x1="117.8" y1="261.1" x2="116.4" y2="263.9"/>
		<line class="st5" x1="117.8" y1="269.5" x2="116.4" y2="272.3"/>
	</g>
	<path class="st4" d="M124.8,245.7h-4.3c-0.7-7.8-7.3-14-15.3-14c-8.1,0-14.7,6.2-15.3,14.1c-4.8,0.7-8.5,4.7-8.5,9.7
		c0,5.4,4.4,9.8,9.8,9.8c0.8,0,1.4-0.6,1.4-1.4c0-0.8-0.6-1.4-1.4-1.4c-3.9,0-7-3.1-7-7s3.1-7,7-7s7,3.1,7,7c0,0.8,0.6,1.4,1.4,1.4
		c0.8,0,1.4-0.6,1.4-1.4c0-4.9-3.6-9-8.3-9.7c0.6-6.3,6-11.3,12.5-11.3c6.9,0,12.6,5.7,12.6,12.6c0,0.8,0.6,1.4,1.4,1.4h5.6
		c3.9,0,7,3.1,7,7s-3.1,7-7,7c-0.8,0-1.4,0.6-1.4,1.4c0,0.8,0.6,1.4,1.4,1.4c5.4,0,9.8-4.4,9.8-9.8S130.2,245.7,124.8,245.7z"/>
</g>
<g id="_x31_0d">
	<path class="st1" d="M108.6,383.1c2.1-2.4,5.1-3.9,8.5-3.9c6.2,0,11.2,5,11.2,11.2c0,2.4-0.7,4.6-2,6.4"/>
	<line class="st0" x1="117.1" y1="370.8" x2="117.1" y2="373.6"/>
	<line class="st0" x1="136.7" y1="390.4" x2="133.9" y2="390.4"/>
	<line class="st0" x1="131" y1="376.5" x2="129" y2="378.5"/>
	<g>
		<line class="st5" x1="98.9" y1="410" x2="97.5" y2="412.8"/>
		<line class="st5" x1="98.9" y1="418.4" x2="97.5" y2="421.2"/>
		<line class="st5" x1="107.3" y1="410" x2="105.9" y2="412.8"/>
		<line class="st5" x1="107.3" y1="418.4" x2="105.9" y2="421.2"/>
		<line class="st5" x1="115.7" y1="410" x2="114.3" y2="412.8"/>
		<line class="st5" x1="115.7" y1="418.4" x2="114.3" y2="421.2"/>
	</g>
	<path class="st3" d="M122.7,411.4c-0.8,0-1.4,0.6-1.4,1.4c0,0.8,0.6,1.4,1.4,1.4c5.4,0,9.8-4.4,9.8-9.8c0-5.4-4.4-9.8-9.8-9.8h-4.3
		c-0.7-7.8-7.3-14-15.3-14c-8.1,0-14.7,6.2-15.3,14.1c-4.8,0.7-8.5,4.7-8.5,9.7c0,5.4,4.4,9.8,9.8,9.8c0.8,0,1.4-0.6,1.4-1.4
		c0-0.8-0.6-1.4-1.4-1.4c-3.9,0-7-3.1-7-7c0-3.9,3.1-7,7-7c3.9,0,7,3.1,7,7c0,0.8,0.6,1.4,1.4,1.4s1.4-0.6,1.4-1.4
		c0-4.9-3.6-9-8.3-9.7c0.6-6.3,6-11.3,12.5-11.3c6.9,0,12.6,5.7,12.6,12.6c0,0.8,0.6,1.4,1.4,1.4h5.6c3.9,0,7,3.1,7,7
		C129.7,408.3,126.6,411.4,122.7,411.4z"/>
</g>
<g id="_x31_0n">
	<g>
		<line class="st5" x1="242.9" y1="410" x2="241.5" y2="412.8"/>
		<line class="st5" x1="242.9" y1="418.4" x2="241.5" y2="421.2"/>
		<line class="st5" x1="251.3" y1="410" x2="249.9" y2="412.8"/>
		<line class="st5" x1="251.3" y1="418.4" x2="249.9" y2="421.2"/>
		<line class="st5" x1="259.7" y1="410" x2="258.3" y2="412.8"/>
		<line class="st5" x1="259.7" y1="418.4" x2="258.3" y2="421.2"/>
	</g>
	<path class="st2" d="M271.6,397.7c3-2,4.9-5.4,4.9-9.3c0-0.1,0-0.2,0-0.4c-0.9,0.2-1.8,0.4-2.8,0.4c-6.1,0-11-4.8-11.2-10.8
		c-3.5,0.9-6.4,3.4-7.7,6.8"/>
	<path class="st4" d="M266.7,411.4c-0.8,0-1.4,0.6-1.4,1.4c0,0.8,0.6,1.4,1.4,1.4c5.4,0,9.8-4.4,9.8-9.8c0-5.4-4.4-9.8-9.8-9.8h-4.3
		c-0.7-7.8-7.3-14-15.3-14c-8.1,0-14.7,6.2-15.3,14.1c-4.8,0.7-8.5,4.7-8.5,9.7c0,5.4,4.4,9.8,9.8,9.8c0.8,0,1.4-0.6,1.4-1.4
		c0-0.8-0.6-1.4-1.4-1.4c-3.9,0-7-3.1-7-7c0-3.9,3.1-7,7-7c3.9,0,7,3.1,7,7c0,0.8,0.6,1.4,1.4,1.4s1.4-0.6,1.4-1.4
		c0-4.9-3.6-9-8.3-9.7c0.6-6.3,6-11.3,12.5-11.3c6.9,0,12.6,5.7,12.6,12.6c0,0.8,0.6,1.4,1.4,1.4h5.6c3.9,0,7,3.1,7,7
		C273.7,408.3,270.6,411.4,266.7,411.4z"/>
</g>
<g id="_x31_1d">
	<polyline class="st6" points="396,399.5 393.2,407.9 398.8,407.9 396,416.3 	"/>
	<path class="st3" d="M412.8,389.7h-4.3c-0.7-7.8-7.3-14-15.3-14c-8.1,0-14.7,6.2-15.3,14.1c-4.8,0.7-8.5,4.7-8.5,9.7
		c0,5.4,4.4,9.8,9.8,9.8c0.8,0,1.4-0.6,1.4-1.4s-0.6-1.4-1.4-1.4c-3.9,0-7-3.1-7-7s3.1-7,7-7c3.9,0,7,3.1,7,7c0,0.8,0.6,1.4,1.4,1.4
		c0.8,0,1.4-0.6,1.4-1.4c0-4.9-3.6-9-8.3-9.7c0.6-6.3,6-11.3,12.5-11.3c6.9,0,12.6,5.7,12.6,12.6c0,0.8,0.6,1.4,1.4,1.4h5.6
		c3.9,0,7,3.1,7,7s-3.1,7-7,7c-0.8,0-1.4,0.6-1.4,1.4s0.6,1.4,1.4,1.4c5.4,0,9.8-4.4,9.8-9.8S418.2,389.7,412.8,389.7z"/>
</g>
<g id="_x31_1n">
	<polyline class="st6" points="540,399.5 537.2,407.9 542.8,407.9 540,416.3 	"/>
	<path class="st4" d="M556.8,389.7h-4.3c-0.7-7.8-7.3-14-15.3-14c-8.1,0-14.7,6.2-15.3,14.1c-4.8,0.7-8.5,4.7-8.5,9.7
		c0,5.4,4.4,9.8,9.8,9.8c0.8,0,1.4-0.6,1.4-1.4s-0.6-1.4-1.4-1.4c-3.9,0-7-3.1-7-7s3.1-7,7-7s7,3.1,7,7c0,0.8,0.6,1.4,1.4,1.4
		c0.8,0,1.4-0.6,1.4-1.4c0-4.9-3.6-9-8.3-9.7c0.6-6.3,6-11.3,12.5-11.3c6.9,0,12.6,5.7,12.6,12.6c0,0.8,0.6,1.4,1.4,1.4h5.6
		c3.9,0,7,3.1,7,7s-3.1,7-7,7c-0.8,0-1.4,0.6-1.4,1.4s0.6,1.4,1.4,1.4c5.4,0,9.8-4.4,9.8-9.8S562.2,389.7,556.8,389.7z"/>
</g>
<g id="_x31_3d">
	<g>
		<circle class="st5" cx="684" cy="407.9" r="4.2"/>
		<line class="st5" x1="684" y1="400.9" x2="684" y2="403.7"/>
		<line class="st5" x1="677.3" y1="404" x2="679.8" y2="405.5"/>
		<line class="st5" x1="677.3" y1="411.8" x2="679.8" y2="410.4"/>
		<line class="st5" x1="684" y1="416.3" x2="684" y2="413.5"/>
		<line class="st5" x1="690.7" y1="411.8" x2="688.2" y2="410.4"/>
		<line class="st5" x1="690.7" y1="404" x2="688.2" y2="405.5"/>
	</g>
	<path class="st3" d="M700.8,389.7h-4.3c-0.7-7.8-7.3-14-15.3-14c-8.1,0-14.7,6.2-15.3,14.1c-4.8,0.7-8.5,4.7-8.5,9.7
		c0,5.4,4.4,9.8,9.8,9.8c0.8,0,1.4-0.6,1.4-1.4s-0.6-1.4-1.4-1.4c-3.9,0-7-3.1-7-7s3.1-7,7-7s7,3.1,7,7c0,0.8,0.6,1.4,1.4,1.4
		c0.8,0,1.4-0.6,1.4-1.4c0-4.9-3.6-9-8.3-9.7c0.6-6.3,6-11.3,12.5-11.3c6.9,0,12.6,5.7,12.6,12.6c0,0.8,0.6,1.4,1.4,1.4h5.6
		c3.9,0,7,3.1,7,7s-3.1,7-7,7c-0.8,0-1.4,0.6-1.4,1.4s0.6,1.4,1.4,1.4c5.4,0,9.8-4.4,9.8-9.8S706.2,389.7,700.8,389.7z"/>
</g>
<g id="_x31_3n">
	<g>
		<circle class="st5" cx="684" cy="551.9" r="4.2"/>
		<line class="st5" x1="684" y1="544.9" x2="684" y2="547.7"/>
		<line class="st5" x1="677.3" y1="548" x2="679.8" y2="549.5"/>
		<line class="st5" x1="677.3" y1="555.8" x2="679.8" y2="554.3"/>
		<line class="st5" x1="684" y1="560.3" x2="684" y2="557.5"/>
		<line class="st5" x1="690.7" y1="555.8" x2="688.2" y2="554.3"/>
		<line class="st5" x1="690.7" y1="548" x2="688.2" y2="549.5"/>
	</g>
	<path class="st4" d="M700.8,533.7h-4.3c-0.7-7.8-7.3-14-15.3-14c-8.1,0-14.7,6.2-15.3,14.1c-4.8,0.7-8.5,4.7-8.5,9.7
		c0,5.4,4.4,9.8,9.8,9.8c0.8,0,1.4-0.6,1.4-1.4c0-0.8-0.6-1.4-1.4-1.4c-3.9,0-7-3.1-7-7s3.1-7,7-7s7,3.1,7,7c0,0.8,0.6,1.4,1.4,1.4
		c0.8,0,1.4-0.6,1.4-1.4c0-4.9-3.6-9-8.3-9.7c0.6-6.3,6-11.3,12.5-11.3c6.9,0,12.6,5.7,12.6,12.6c0,0.8,0.6,1.4,1.4,1.4h5.6
		c3.9,0,7,3.1,7,7s-3.1,7-7,7c-0.8,0-1.4,0.6-1.4,1.4c0,0.8,0.6,1.4,1.4,1.4c5.4,0,9.8-4.4,9.8-9.8S706.2,533.7,700.8,533.7z"/>
</g>
<g id="_x35_0d">
	<path class="st1" d="M540.6,527.1c2.1-2.4,5.1-3.9,8.5-3.9c6.2,0,11.2,5,11.2,11.2c0,2.4-0.7,4.6-2,6.4"/>
	<line class="st0" x1="549.1" y1="514.8" x2="549.1" y2="517.6"/>
	<line class="st0" x1="568.7" y1="534.4" x2="565.9" y2="534.4"/>
	<line class="st0" x1="563" y1="520.5" x2="561" y2="522.5"/>
	<line class="st5" x1="549.1" y1="554" x2="526.7" y2="554"/>
	<line class="st5" x1="546.3" y1="559.6" x2="526.7" y2="559.6"/>
	<line class="st5" x1="521.1" y1="565.2" x2="512.7" y2="565.2"/>
	<line class="st5" x1="543.5" y1="565.2" x2="526.7" y2="565.2"/>
	<path class="st3" d="M521.1,558.2c0.8,0,1.4-0.6,1.4-1.4c0-0.8-0.6-1.4-1.4-1.4c-3.9,0-7-3.1-7-7c0-3.9,3.1-7,7-7c3.9,0,7,3.1,7,7
		c0,0.8,0.6,1.4,1.4,1.4s1.4-0.6,1.4-1.4c0-4.9-3.6-9-8.3-9.7c0.6-6.3,6-11.3,12.5-11.3c6.9,0,12.6,5.7,12.6,12.6
		c0,0.8,0.6,1.4,1.4,1.4h5.6c3.9,0,7,3.1,7,7c0,3.9-3.1,7-7,7c-0.8,0-1.4,0.6-1.4,1.4c0,0.8,0.6,1.4,1.4,1.4c5.4,0,9.8-4.4,9.8-9.8
		c0-5.4-4.4-9.8-9.8-9.8h-4.3c-0.7-7.8-7.3-14-15.3-14c-8.1,0-14.7,6.2-15.3,14.1c-4.8,0.7-8.5,4.7-8.5,9.7
		C511.3,553.8,515.7,558.2,521.1,558.2z"/>
</g>
<g id="_x35_0n">
	<path class="st2" d="M416.3,537.9c3-2,4.9-5.4,4.9-9.3c0-0.1,0-0.2,0-0.4c-0.9,0.2-1.8,0.4-2.8,0.4c-6.1,0-11-4.8-11.2-10.8
		c-3.5,0.9-6.4,3.4-7.7,6.8"/>
	<line class="st5" x1="408.6" y1="551" x2="386.2" y2="551"/>
	<line class="st5" x1="405.8" y1="556.6" x2="386.2" y2="556.6"/>
	<line class="st5" x1="380.6" y1="562.2" x2="372.2" y2="562.2"/>
	<line class="st5" x1="403" y1="562.2" x2="386.2" y2="562.2"/>
	<path class="st4" d="M412.8,535.6h-4.3c-0.7-7.8-7.3-14-15.3-14c-8.1,0-14.7,6.2-15.3,14.1c-4.8,0.7-8.5,4.7-8.5,9.7
		c0,5.4,4.4,9.8,9.8,9.8c0.8,0,1.4-0.6,1.4-1.4c0-0.8-0.6-1.4-1.4-1.4c-3.9,0-7-3.1-7-7c0-3.9,3.1-7,7-7c3.9,0,7,3.1,7,7
		c0,0.8,0.6,1.4,1.4,1.4c0.8,0,1.4-0.6,1.4-1.4c0-4.9-3.6-9-8.3-9.7c0.6-6.3,6-11.3,12.5-11.3c6.9,0,12.6,5.7,12.6,12.6
		c0,0.8,0.6,1.4,1.4,1.4h5.6c3.9,0,7,3.1,7,7c0,3.9-3.1,7-7,7c-0.8,0-1.4,0.6-1.4,1.4c0,0.8,0.6,1.4,1.4,1.4c5.4,0,9.8-4.4,9.8-9.8
		C422.6,540,418.2,535.6,412.8,535.6z"/>
</g>
</svg>
