<?xml version="1.0" encoding="utf-8"?>
<!-- Generator: Adobe Illustrator 16.0.0, SVG Export Plug-In . SVG Version: 6.00 Build 0)  -->
<!DOCTYPE svg PUBLIC "-//W3C//DTD SVG 1.1//EN" "http://www.w3.org/Graphics/SVG/1.1/DTD/svg11.dtd">
<svg version="1.1" id="Layer_1" xmlns="http://www.w3.org/2000/svg" xmlns:xlink="http://www.w3.org/1999/xlink" x="0px" y="0px"
	 width="275px" height="205px" viewBox="0 0 275 205" enable-background="new 0 0 275 205" xml:space="preserve">
<g>
	<path id="bottom" fill="#FFFFFF" stroke="#FFFFFF" stroke-miterlimit="10" d="M272,174v18.5c0,2.56-0.01,5.449-1.6,7.22
		c-0.01,0.02,0.02-0.02,0,0c-1.79,1.721-3.73,3.28-6.4,3.28H13c-5.5,0-11-5.5-11-11v-18H272z"/>
	<path id="frame" fill="#FFFFFF" stroke="#FFFFFF" stroke-miterlimit="10" d="M272,174H2V13c0-2.713,1.287-5.287,3.169-7.246
		l0.215,0.168C7.343,3.906,10.195,3,13,3h249c5.79,0,10,4.21,10,10V174z M3,173h268V13c0-5.238-3.762-9-9-9H13
		c-2.549,0-5.027,0.806-6.8,2.646L5.817,6.62C4.188,8.344,3,10.546,3,13V173z"/>
	<path id="hills" fill="#FFFFFF" stroke="#FFFFFF" stroke-miterlimit="10" d="M235.854,158H41.478c-2.846,0-4.986-1.242-6.027-3.044
		c-1.04-1.802-0.829-4.276,0.594-6.741l43.063-74.651c1.423-2.465,3.353-3.854,5.433-3.854s4.01,1.342,5.433,3.807l24.542,42.5
		c1.237,2.143,2.859,3.318,4.567,3.318s3.33-1.182,4.567-3.324l44.125-76.426c1.423-2.465,3.353-3.823,5.433-3.823
		s4.01,1.357,5.433,3.822l62.646,108.506c1.424,2.465,1.635,5.064,0.594,6.866C240.841,156.758,238.701,158,235.854,158z
		 M84.542,70.679c-1.708,0-3.33,1.18-4.567,3.322L36.911,148.59c-1.237,2.143-1.448,4.387-0.594,5.866S39.004,157,41.478,157
		h194.376c2.474,0,4.307-1.064,5.161-2.544c0.854-1.479,0.643-3.599-0.594-5.741L177.775,40.146
		c-1.237-2.143-2.859-3.354-4.567-3.354s-3.33,1.164-4.567,3.307l-44.124,76.417c-1.423,2.465-3.353,3.818-5.433,3.818
		s-4.01-1.359-5.433-3.824L89.108,74.002C87.872,71.859,86.25,70.679,84.542,70.679z"/>
	<g id="sun">
		<path fill="#FFFFFF" stroke="#FFFFFF" stroke-miterlimit="10" d="M83.813,39.166c-4.431,0-8.036-3.605-8.036-8.036
			c0-4.432,3.605-8.037,8.036-8.037s8.036,3.605,8.036,8.037C91.849,35.561,88.244,39.166,83.813,39.166z M83.813,24.093
			c-3.88,0-7.036,3.157-7.036,7.037s3.156,7.036,7.036,7.036s7.036-3.156,7.036-7.036S87.693,24.093,83.813,24.093z"/>
		<g>
			<path fill="#FFFFFF" stroke="#FFFFFF" stroke-miterlimit="10" d="M83.813,39.166c-4.431,0-8.036-3.605-8.036-8.036
				c0-4.432,3.605-8.037,8.036-8.037s8.036,3.605,8.036,8.037C91.849,35.561,88.244,39.166,83.813,39.166z M83.813,24.093
				c-3.88,0-7.036,3.157-7.036,7.037s3.156,7.036,7.036,7.036s7.036-3.156,7.036-7.036S87.693,24.093,83.813,24.093z"/>
			<rect x="83" y="13" fill="#FFFFFF" stroke="#FFFFFF" stroke-miterlimit="10" width="1" height="8"/>
			<rect x="83" y="42" fill="#FFFFFF" stroke="#FFFFFF" stroke-miterlimit="10" width="1" height="8"/>
			
				<rect x="93.812" y="16.948" transform="matrix(0.7071 0.7071 -0.7071 0.7071 42.2519 -60.6295)" fill="#FFFFFF" stroke="#FFFFFF" stroke-miterlimit="10" width="1" height="7.479"/>
			
				<rect x="73.188" y="37.573" transform="matrix(0.7071 0.7071 -0.7071 0.7071 50.7948 -40.005)" fill="#FFFFFF" stroke="#FFFFFF" stroke-miterlimit="10" width="1" height="7.479"/>
			<rect x="94" y="31" fill="#FFFFFF" stroke="#FFFFFF" stroke-miterlimit="10" width="8" height="1"/>
			<rect x="65" y="31" fill="#FFFFFF" stroke="#FFFFFF" stroke-miterlimit="10" width="8" height="1"/>
			
				<rect x="69.948" y="20.187" transform="matrix(0.7071 0.7071 -0.7071 0.7071 36.2136 -46.0472)" fill="#FFFFFF" stroke="#FFFFFF" stroke-miterlimit="10" width="7.479" height="1"/>
			
				<rect x="90.572" y="40.812" transform="matrix(0.7071 0.7071 -0.7071 0.7071 56.8351 -54.5886)" fill="#FFFFFF" stroke="#FFFFFF" stroke-miterlimit="10" width="7.479" height="1"/>
		</g>
	</g>
</g>
</svg>
