<?xml version="1.0" encoding="utf-8"?>
<!-- Generator: Adobe Illustrator 25.4.1, SVG Export Plug-In . SVG Version: 6.00 Build 0)  -->
<svg version="1.1" id="Layer_1" xmlns="http://www.w3.org/2000/svg" xmlns:xlink="http://www.w3.org/1999/xlink" x="0px" y="0px"
	 viewBox="0 0 65 65" style="enable-background:new 0 0 65 65;" xml:space="preserve">
<style type="text/css">
	.st0{display:none;fill:none;stroke:#000000;stroke-linecap:round;stroke-miterlimit:10;}
	.st1{fill:none;stroke:#F4F4F4;stroke-miterlimit:10;}
	.st2{fill:#F4F4F4;}
</style>
<g>
	<rect x="2.5" y="2.5" class="st0" width="60" height="60"/>
</g>
<g>
	<path class="st1" d="M59.8,57.8c0,1.1-0.9,2-2,2H7.2c-1.1,0-2-0.9-2-2V13c0-1.1,0.9-2,2-2h50.7c1.1,0,2,0.9,2,2V57.8z"/>
</g>
<g>
	<path class="st2" d="M39,21.3c-0.5-1-1.5-1-2,0L29.6,34c-0.6,1-1.4,1-2,0L24.1,28c-0.5-1-1.4-1-2,0L7,54.1c-0.6,1-0.1,1.7,1,1.7h7
		c1.1,0,2.9,0,4,0h19.2c1.1,0,2.9,0,4,0H57c1.1,0,1.5-0.8,1-1.7L39,21.3z"/>
</g>
<circle class="st2" cx="13.8" cy="16.4" r="1.7"/>
</svg>
